<?xml version="1.0" encoding="UTF-8"?>
<!-- Generator: Adobe Illustrator 19.2.0, SVG Export Plug-In . SVG Version: 6.00 Build 0)  -->
<svg version="1.1" id="Layer_1" xmlns="http://www.w3.org/2000/svg" xmlns:xlink="http://www.w3.org/1999/xlink" x="0px" y="0px" viewBox="0 0 211.008 59.127" style="enable-background:new 0 0 211.008 59.127;" xml:space="preserve">
<style type="text/css">
	.st0{fill:#F67E19;}
</style>
<path class="st0" d="M27.421,30.862c-0.205-1.561-0.731-2.97-1.578-4.224c-1.233-1.69-3.145-2.535-5.736-2.535  c-3.696,0-6.224,1.831-7.584,5.492c-0.719,1.941-1.078,4.52-1.078,7.738c0,3.065,0.358,5.53,1.078,7.394  c1.309,3.482,3.772,5.223,7.392,5.223c2.566,0,4.389-0.691,5.466-2.074c1.078-1.382,1.732-3.174,1.963-5.376H38.52  c-0.257,3.329-1.461,6.478-3.613,9.447c-3.435,4.788-8.522,7.182-15.262,7.182c-6.741,0-11.7-1.997-14.877-5.991  C1.589,49.142,0,43.964,0,37.6c0-7.18,1.755-12.768,5.266-16.762c3.511-3.994,8.355-5.991,14.532-5.991  c5.253,0,9.552,1.178,12.897,3.533c3.344,2.356,5.324,6.516,5.939,12.481H27.421z"/>
<path class="st0" d="M61.817,32.244c2.073-0.256,3.556-0.576,4.449-0.96c1.601-0.665,2.402-1.702,2.402-3.11  c0-1.715-0.614-2.9-1.842-3.553c-1.228-0.653-3.031-0.979-5.408-0.979c-2.668,0-4.557,0.64-5.666,1.92  c-0.793,0.948-1.321,2.228-1.585,3.84H43.418c0.235-3.661,1.282-6.669,3.14-9.025c2.957-3.687,8.034-5.53,15.231-5.53  c4.684,0,8.845,0.909,12.483,2.727c3.637,1.818,5.456,5.249,5.456,10.292v19.202c0,1.332,0.026,2.945,0.078,4.839  c0.079,1.434-0.134,5.799-0.134,5.799h-9.676c-0.339-0.845-0.573-1.638-0.704-2.381c-0.131-0.743-0.16-0.793-0.238-1.74  c-1.546,1.639-2.948,2.389-4.966,3.541c-2.411,1.356-5.592,1.885-8.632,1.885c-3.879,0-7.083-1.082-9.612-3.245  c-2.53-2.163-3.794-5.229-3.794-9.198c0-5.146,2.034-8.872,6.103-11.176c2.232-1.254,5.513-2.15,9.844-2.688L61.817,32.244z   M68.628,37.352c-0.714,0.436-1.434,0.788-2.16,1.056c-0.727,0.269-1.723,0.519-2.991,0.749l-2.536,0.461  c-2.377,0.41-4.084,0.909-5.12,1.498c-1.755,0.999-2.632,2.548-2.632,4.647c0,1.869,0.536,3.22,1.608,4.052  c1.071,0.833,2.374,1.248,3.909,1.248c2.435,0,4.676-0.691,6.727-2.074c2.051-1.382,3.115-3.904,3.195-7.565V37.352z"/>
<path class="st0" d="M163.317,32.244c2.073-0.256,3.556-0.576,4.449-0.96c1.601-0.665,2.402-1.702,2.402-3.11  c0-1.715-0.614-2.9-1.842-3.553c-1.228-0.653-3.031-0.979-5.408-0.979c-2.668,0-4.557,0.64-5.666,1.92  c-0.793,0.948-1.321,2.228-1.585,3.84h-10.749c0.235-3.661,1.282-6.669,3.14-9.025c2.957-3.687,8.034-5.53,15.231-5.53  c4.684,0,8.845,0.909,12.483,2.727c3.637,1.818,5.456,5.249,5.456,10.292v19.202c0,1.332,0.026,2.945,0.078,4.839  c0.079,1.434-0.134,5.799-0.134,5.799h-9.676c-0.339-0.845-0.573-1.638-0.704-2.381c-0.131-0.743-0.16-0.793-0.238-1.74  c-1.546,1.639-2.948,2.389-4.966,3.541c-2.411,1.356-5.592,1.885-8.632,1.885c-3.879,0-7.083-1.082-9.612-3.245  c-2.53-2.163-3.794-5.229-3.794-9.198c0-5.146,2.034-8.872,6.103-11.176c2.232-1.254,5.513-2.15,9.844-2.688L163.317,32.244z   M170.128,37.352c-0.714,0.436-1.434,0.788-2.16,1.056c-0.727,0.269-1.723,0.519-2.991,0.749l-2.536,0.461  c-2.377,0.41-4.084,0.909-5.12,1.498c-1.755,0.999-2.632,2.548-2.632,4.647c0,1.869,0.536,3.22,1.608,4.052  c1.071,0.833,2.374,1.248,3.909,1.248c2.435,0,4.676-0.691,6.727-2.074s3.115-3.904,3.195-7.565V37.352z"/>
<path class="st0" d="M111.99,15.951h11.751l-15.116,41.861H97.085L82.073,15.951h12.289l8.718,28.256L111.99,15.951z"/>
<path class="st0" d="M138.569,10.377H127.47V0h11.099V10.377z M127.47,15.845h11.099v41.861H127.47V15.845z"/>
<path class="st0" d="M210.067,14.866c0.141,0.013,0.455,0.032,0.941,0.058v11.214c-0.691-0.077-1.306-0.128-1.843-0.154  c-0.538-0.025-0.973-0.038-1.306-0.038c-4.404,0-7.361,1.434-8.872,4.301c-0.845,1.613-1.267,4.097-1.267,7.45v20.009h-11.022  V15.845h10.446v4.906c1.69-2.79,2.589-3.163,3.843-4.188c2.048-1.715,5.284-1.717,8.561-1.717  C209.754,14.847,209.927,14.854,210.067,14.866z"/>
</svg>