<?xml version="1.0" encoding="UTF-8"?>
<!-- Generator: Adobe Illustrator 24.0.0, SVG Export Plug-In . SVG Version: 6.00 Build 0)  -->
<svg version="1.1" id="Layer_1" xmlns="http://www.w3.org/2000/svg" xmlns:xlink="http://www.w3.org/1999/xlink" x="0px" y="0px" viewBox="0 0 188.1 22" style="enable-background:new 0 0 188.1 22;" xml:space="preserve">
<style type="text/css">
	.st0{fill:#FF3008;}
</style>
<g id="tI8DiR_2_">
	<g>
		<path class="st0" d="M15,0c4.6,0,9.1,0,13.6,0c1.6,0,3.2,0.4,4.6,1.3c1.4,0.9,2.7,1.9,3.5,3.3c0.7,1.1,1.3,2.3,1.5,3.7    c0.1,0.9,0.4,1.8,0.4,2.8c0,1.5-0.3,3-0.9,4.4c-0.8,1.8-2,3.3-3.6,4.5c-1,0.8-2.2,1.5-3.5,1.6c-0.9,0.1-1.9,0.4-2.8,0.4    c-2,0.1-3.9,0.1-5.9,0.1c-1.2,0-2.1-0.6-2.9-1.5c-0.5-0.5-1-1.1-1.5-1.6c-1.3-1.3-2.6-2.6-3.8-3.9c-0.2-0.2-0.3-0.6-0.2-0.8    c0.1-0.3,0.4-0.5,0.7-0.6c0.2-0.1,0.6,0,0.8,0c4.1,0,8.3,0,12.4,0c1.1,0,2-0.4,2.5-1.4c0.4-0.8,0.3-2.2-0.3-2.9    c-0.6-0.7-1.3-1-2.2-1c-6.3,0-12.5,0-18.8,0C7.5,8.4,6.6,8,5.8,7.2C4.1,5.4,2.4,3.8,0.7,2.1C0.5,1.8,0.3,1.6,0.1,1.4    C-0.2,0.7,0.2,0,1,0c0.7,0,1.5,0,2.2,0C7.1,0,11,0,15,0z"/>
		<path class="st0" d="M93.3,19.1c-1.2,0-2.3-0.2-3.4-0.7c-1.5-0.6-2.7-1.5-3.6-2.7c-0.8-1.1-1.3-2.4-1.5-3.8    c-0.2-1.2-0.1-2.4,0.4-3.5c0.4-1,0.8-1.9,1.6-2.7c0.6-0.6,1.2-1.2,1.9-1.6c0.8-0.5,1.5-0.9,2.5-1c0.7,0,1.5-0.4,2.2-0.3    c1.7,0.1,3.3,0.6,4.8,1.6c1,0.7,1.7,1.5,2.3,2.5c0.4,0.7,0.6,1.5,0.8,2.2c0.2,0.6,0.2,1.3,0.2,1.9c0,2.4-0.9,4.3-2.7,5.9    c-1,0.9-2.2,1.5-3.4,1.9C94.8,19.1,94,19,93.3,19.1z M98.4,11c0.1-2.8-2.4-5.2-5.1-5.3C90.2,5.7,88,8,88,10.9c0,3,2.3,5.4,5.4,5.3    C96,16.2,98.4,13.9,98.4,11z"/>
		<path class="st0" d="M47.1,11c0-2.3,0-4.7,0-7c0-0.6,0.1-0.8,0.7-0.8c2,0,3.9,0,5.9,0c1.2,0.1,2.4,0.5,3.4,1.1    C58.4,5,59.2,6,59.9,7.1c0.5,0.8,0.6,1.7,0.9,2.6c0.3,1.1,0.1,2.2-0.1,3.3c-0.1,0.7-0.5,1.3-0.8,1.9c-0.6,1-1.4,1.8-2.3,2.5    c-0.6,0.4-1.3,0.7-2,1c-2.5,0.8-5.1,0.4-7.6,0.5c-0.5,0-0.7-0.3-0.7-0.8C47.1,15.7,47.1,13.3,47.1,11z M50.4,10.9    C50.4,10.9,50.4,10.9,50.4,10.9c0,1.5,0,2.9,0,4.4c0,0.2,0,0.5,0.3,0.5c1.4,0,2.9,0.3,4.3-0.4c1.1-0.6,2-1.4,2.4-2.6    c0.5-1.6,0.5-3.1-0.4-4.5c-0.9-1.3-2.1-2.1-3.8-2.2c-0.7,0-1.4,0-2.1,0c-0.7,0-0.7,0-0.7,0.7C50.4,8.1,50.4,9.5,50.4,10.9z"/>
		<path class="st0" d="M81.2,11c0.1,1.4-0.4,2.6-1,3.8c-0.8,1.6-2,2.6-3.5,3.4C76,18.6,75.1,19,74.1,19c-0.9,0-1.8,0-2.7,0    c-1.1-0.1-2.1-0.6-3.1-1.2c-1.4-0.8-2.5-2-3.1-3.4c-0.9-2-1.1-4-0.3-6.1c0.4-1,0.9-2,1.7-2.8c0.6-0.7,1.4-1.1,2.2-1.6    c1-0.7,2.2-0.7,3.3-1c0.7-0.2,1.4,0,2.2,0.1c1,0.2,2,0.5,3,1c1.7,1,2.9,2.4,3.6,4.3C81.1,9.2,81.3,10,81.2,11z M73.1,5.8    c-3.2-0.3-5.4,2.6-5.5,5c-0.1,3,2.4,5.4,5.3,5.4c2.9,0,5.1-2.3,5.2-5.1C78.2,8.3,75.8,5.6,73.1,5.8z"/>
		<path class="st0" d="M106.3,10.9c0-2.4,0-4.7,0-7.1c0-0.4,0.2-0.6,0.6-0.6c2.2,0,4.5,0,6.7,0c1.6,0,2.9,0.8,3.8,2.1    c0.6,0.8,1,1.8,0.9,2.8c0,0.9-0.2,1.8-0.5,2.5c-0.4,0.9-1.1,1.6-1.9,2.1c-0.3,0.2-0.4,0.4-0.2,0.7c0.9,1.5,1.8,3.1,2.7,4.7    c0.3,0.6,0.1,0.9-0.5,0.9c-0.6,0-1.1,0-1.7,0c-0.7,0.1-0.9-0.4-1.2-0.9c-0.3-0.6-0.6-1.1-1-1.7c-0.3-0.5-0.6-1.1-0.9-1.6    c-0.2-0.4-0.5-0.8-0.7-1.2c-0.1-0.1-0.2-0.1-0.4-0.2c-0.8,0-1.5,0-2.3,0c-0.4,0-0.5,0.2-0.5,0.6c0,1.4,0,2.8,0,4.2    c0,0.6-0.1,0.7-0.7,0.7c-0.6,0-1.2,0-1.9,0c-0.4,0-0.6-0.1-0.6-0.6C106.3,15.7,106.3,13.3,106.3,10.9    C106.3,10.9,106.3,10.9,106.3,10.9z M111.7,10.3C111.7,10.3,111.7,10.3,111.7,10.3c0.6,0,1.1,0,1.7,0c0.9,0,1.6-0.7,1.7-1.6    c0-0.3,0-0.6,0-0.9c-0.1-0.9-0.8-1.6-1.8-1.7c-1.1,0-2.3,0-3.4,0c-0.4,0-0.5,0.2-0.5,0.5c0,1.1,0,2.1,0,3.2c0,0.4,0.1,0.5,0.5,0.5    C110.5,10.3,111.1,10.3,111.7,10.3z"/>
		<path class="st0" d="M124.1,11c0-2.3,0-4.6,0-7c0-0.7,0.1-0.8,0.8-0.8c1.6,0,3.1,0,4.7,0c1.4,0,2.7,0.3,3.9,0.9    c1.2,0.6,2.1,1.4,2.8,2.5c0.8,1.1,1.1,2.2,1.3,3.5c0.3,1.7-0.1,3.3-0.9,4.8c-0.6,1.1-1.4,2-2.4,2.6c-0.8,0.5-1.8,0.9-2.8,1.2    c-0.9,0.2-1.8,0.2-2.7,0.2c-1.3,0-2.7,0-4,0c-0.7,0-0.8-0.1-0.8-0.8C124.1,15.7,124.1,13.4,124.1,11C124.1,11,124.1,11,124.1,11z     M127.2,11c0,1.4,0,2.9,0,4.3c0,0.3,0.1,0.6,0.4,0.6c1.3,0.1,2.6,0.1,3.7-0.3c1.5-0.5,2.6-1.7,3-3.2c0.4-1.8,0.2-3.6-1.3-5    c-0.6-0.5-1.2-1-1.9-1.1c-1.1-0.2-2.2-0.2-3.3-0.2c-0.6,0-0.7,0.1-0.7,0.7C127.2,8.2,127.2,9.6,127.2,11z"/>
		<path class="st0" d="M175,10.9c0-2.4,0-4.7,0-7.1c0-0.7,0-0.7,0.7-0.7c0.5,0,1,0,1.6,0c0.8,0,0.9,0.1,0.9,0.8c0,1.6,0,3.1,0,4.7    c0,0.7,0,0.7,0.7,0.7c1.9,0,3.7,0,5.6,0c0.5,0,0.6-0.1,0.6-0.6c0-1.6,0-3.2,0-4.9c0-0.7,0.1-0.8,0.8-0.8c0.6,0,1.1,0,1.7,0    c0.6,0,0.6,0.1,0.6,0.6c0,4.2,0,8.5,0,12.7c0,0.5,0,1,0,1.6c0,0.4-0.2,0.6-0.6,0.6c-0.6,0-1.2,0-1.8,0c-0.6,0-0.8-0.3-0.8-0.8    c0-1.6,0-3.2,0-4.8c0-0.2,0-0.3,0-0.5c-0.1-0.1-0.2-0.3-0.4-0.3c-1.5,0-3,0-4.4,0c-0.5,0-1.1-0.1-1.6-0.1c-0.4,0-0.4,0.3-0.4,0.6    c0,1.1,0,2.1,0,3.2c0,0.6,0,1.3,0,1.9c0,0.6-0.2,0.8-0.8,0.8c-0.6,0-1.2,0-1.8,0c-0.4,0-0.5-0.2-0.5-0.6    C175,15.7,175,13.3,175,10.9C175,10.9,175,10.9,175,10.9z"/>
		<path class="st0" d="M148.2,3.2c0.4,0,0.9,0,1.3,0c0.3,0,0.4,0.1,0.5,0.4c0.3,0.9,0.7,1.8,1.1,2.7c0.3,0.8,0.6,1.6,0.9,2.5    c0.3,0.7,0.6,1.5,0.9,2.2c0.3,0.7,0.6,1.5,0.9,2.2c0.3,0.8,0.7,1.7,1,2.5c0.3,0.9,0.7,1.7,1,2.6c0.1,0.3-0.2,0.5-0.4,0.5    c-0.8,0-1.6,0-2.4,0c-0.2,0-0.4-0.3-0.5-0.5c-0.4-0.9-0.8-1.7-1-2.6c-0.2-0.7-0.6-0.7-1.1-0.7c-1.6,0-3.2,0-4.9,0    c-0.4,0-0.6,0.2-0.7,0.5c-0.3,0.9-0.6,1.9-1,2.8c-0.1,0.2-0.4,0.4-0.7,0.5c-0.7,0.1-1.4,0-2,0c-0.5,0-0.7-0.3-0.5-0.7    c0.4-1,0.8-2,1.2-3c0.4-1,0.7-1.9,1.1-2.9c0.2-0.6,0.5-1.2,0.7-1.8c0.3-0.8,0.6-1.6,0.9-2.3c0.1-0.3,0.3-0.6,0.4-0.9    c0.5-1.2,1-2.5,1.6-3.7c0.1-0.1,0.3-0.3,0.4-0.3C147.3,3.2,147.7,3.2,148.2,3.2C148.2,3.2,148.2,3.2,148.2,3.2z M148.2,7.1    c-0.1,0.2-0.2,0.2-0.3,0.3c-0.2,0.5-0.4,1-0.6,1.5c-0.3,0.9-0.7,1.9-1,2.8c-0.1,0.4,0,0.6,0.4,0.6c0.9,0,1.8,0,2.8,0    c0.4,0,0.5-0.2,0.5-0.5c0-0.2-0.1-0.3-0.1-0.5c-0.3-0.9-0.7-1.8-1-2.7C148.6,8.1,148.4,7.7,148.2,7.1z"/>
		<path class="st0" d="M164,19c-1.1,0.1-2.5-0.2-3.7-1c-0.5-0.3-1-0.8-1.4-1.2c-0.1-0.1-0.1-0.4,0-0.5c0.4-0.5,0.9-1,1.4-1.4    c0.1-0.1,0.3,0,0.4,0c0.5,0.3,0.9,0.7,1.5,0.9c1.3,0.6,2.6,0.8,3.9-0.1c0.8-0.5,1.1-1.4,0.8-2.2c-0.2-0.4-0.7-0.7-1.2-1    c-0.9-0.5-1.9-0.7-2.8-1c-0.7-0.2-1.5-0.5-2.1-1c-0.9-0.7-1.5-1.6-1.6-2.7c-0.1-1.5,0.3-2.8,1.4-3.8c0.5-0.5,1.1-0.8,1.8-1    c0.8-0.2,1.6-0.5,2.4-0.4c1.2,0.1,2.3,0.3,3.3,1c0.4,0.3,0.8,0.5,1.2,0.8c0.3,0.2,0.2,0.5,0,0.7c-0.4,0.4-0.8,0.8-1.3,1.2    c-0.2,0.2-0.4,0.2-0.7,0c-0.8-0.6-1.7-0.9-2.7-0.8c-0.7,0-1.4,0.2-1.9,0.8c-0.5,0.5-0.5,1.6,0.2,2c0.8,0.6,1.6,0.9,2.5,1.1    c1.3,0.4,2.7,0.8,3.8,1.8c0.4,0.4,0.6,0.9,0.8,1.4c0.3,0.6,0.3,1.3,0.2,2c-0.2,1.6-1.1,2.8-2.5,3.6C166.7,19,165.6,19,164,19z"/>
	</g>
</g>
</svg>