<?xml version="1.0" encoding="UTF-8"?>
<!-- Generator: Adobe Illustrator 24.0.0, SVG Export Plug-In . SVG Version: 6.00 Build 0)  -->
<svg version="1.1" id="Layer_1" xmlns="http://www.w3.org/2000/svg" xmlns:xlink="http://www.w3.org/1999/xlink" x="0px" y="0px" viewBox="0 0 119.7 14" style="enable-background:new 0 0 119.7 14;" xml:space="preserve">
<style type="text/css">
	.st0{fill:#FFFFFF;}
</style>
<g id="tI8DiR_2_">
	<g>
		<path class="st0" d="M9.5,0c2.9,0,5.8,0,8.7,0c1,0,2,0.3,3,0.8c0.9,0.5,1.7,1.2,2.2,2.1c0.4,0.7,0.8,1.5,0.9,2.3    c0.1,0.6,0.2,1.2,0.2,1.8c0,1-0.2,1.9-0.6,2.8c-0.5,1.1-1.3,2.1-2.3,2.8c-0.7,0.5-1.4,0.9-2.2,1c-0.6,0.1-1.2,0.2-1.8,0.3    C16.4,14,15.2,14,13.9,14c-0.8,0-1.3-0.4-1.8-1c-0.3-0.3-0.7-0.7-1-1c-0.8-0.8-1.6-1.6-2.4-2.5C8.6,9.4,8.5,9.2,8.6,9    C8.6,8.9,8.8,8.7,9,8.7c0.2-0.1,0.4,0,0.5,0c2.6,0,5.3,0,7.9,0c0.7,0,1.2-0.3,1.6-0.9c0.3-0.5,0.2-1.4-0.2-1.8    c-0.4-0.4-0.9-0.6-1.4-0.6c-4,0-8,0-11.9,0c-0.7,0-1.3-0.2-1.8-0.8C2.6,3.5,1.5,2.4,0.4,1.3C0.3,1.2,0.2,1,0.1,0.9    C-0.1,0.4,0.1,0,0.6,0C1.1,0,1.5,0,2,0C4.5,0,7,0,9.5,0z"/>
		<path class="st0" d="M59.4,12.1c-0.7,0-1.4-0.1-2.1-0.4c-0.9-0.4-1.7-0.9-2.3-1.7c-0.5-0.7-0.8-1.5-1-2.4c-0.1-0.8,0-1.5,0.2-2.2    c0.2-0.6,0.5-1.2,1-1.7c0.4-0.4,0.8-0.8,1.2-1C56.9,2.3,57.4,2,58,2c0.5,0,0.9-0.2,1.4-0.2c1.1,0.1,2.1,0.4,3.1,1    c0.6,0.4,1.1,1,1.5,1.6c0.3,0.4,0.4,0.9,0.5,1.4c0.1,0.4,0.1,0.8,0.1,1.2c0,1.5-0.6,2.8-1.7,3.8c-0.6,0.6-1.4,0.9-2.2,1.2    C60.3,12.1,59.8,12.1,59.4,12.1z M62.6,7c0.1-1.8-1.5-3.3-3.2-3.3c-2,0-3.4,1.4-3.4,3.3c0,1.9,1.5,3.4,3.4,3.4    C61.1,10.3,62.6,8.9,62.6,7z"/>
		<path class="st0" d="M30,7c0-1.5,0-3,0-4.5C30,2.1,30,2,30.4,2c1.3,0,2.5,0,3.8,0c0.8,0,1.5,0.3,2.2,0.7c0.8,0.4,1.3,1,1.7,1.7    c0.3,0.5,0.4,1.1,0.6,1.7c0.2,0.7,0.1,1.4-0.1,2.1c-0.1,0.4-0.3,0.8-0.5,1.2c-0.4,0.6-0.9,1.2-1.5,1.6c-0.4,0.3-0.8,0.5-1.3,0.6    c-1.6,0.5-3.2,0.3-4.9,0.3c-0.3,0-0.5-0.2-0.5-0.5C30,10,30,8.5,30,7z M32,7C32,7,32,7,32,7c0,0.9,0,1.9,0,2.8    c0,0.1,0,0.3,0.2,0.3c0.9,0,1.9,0.2,2.7-0.3c0.7-0.4,1.3-0.9,1.5-1.6c0.3-1,0.3-2-0.3-2.9c-0.6-0.8-1.3-1.4-2.4-1.4    c-0.4,0-0.9,0-1.3,0c-0.4,0-0.4,0-0.4,0.4C32,5.2,32,6.1,32,7z"/>
		<path class="st0" d="M51.7,7c0.1,0.9-0.2,1.7-0.6,2.4c-0.5,1-1.3,1.6-2.2,2.1c-0.5,0.3-1.1,0.5-1.7,0.5c-0.6,0-1.1,0-1.7,0    c-0.7-0.1-1.4-0.4-2-0.7c-0.9-0.5-1.6-1.3-2-2.2c-0.5-1.2-0.7-2.5-0.2-3.9c0.3-0.7,0.6-1.3,1.1-1.8c0.4-0.4,0.9-0.7,1.4-1    C44.4,2,45.2,2,45.9,1.8c0.4-0.1,0.9,0,1.4,0.1c0.7,0.1,1.3,0.3,1.9,0.7c1.1,0.7,1.8,1.5,2.3,2.7C51.6,5.8,51.8,6.4,51.7,7z     M46.5,3.7c-2-0.2-3.5,1.6-3.5,3.2c0,1.9,1.5,3.4,3.4,3.4c1.8,0,3.2-1.4,3.3-3.3C49.8,5.3,48.3,3.6,46.5,3.7z"/>
		<path class="st0" d="M67.6,7c0-1.5,0-3,0-4.5C67.6,2.2,67.7,2,68,2c1.4,0,2.9,0,4.3,0c1,0,1.8,0.5,2.4,1.3    c0.4,0.5,0.6,1.1,0.6,1.8c0,0.5-0.1,1.1-0.3,1.6c-0.2,0.6-0.7,1-1.2,1.3c-0.2,0.1-0.2,0.2-0.1,0.4c0.6,1,1.1,2,1.7,3    c0.2,0.4,0.1,0.5-0.3,0.5c-0.4,0-0.7,0-1.1,0c-0.5,0-0.6-0.2-0.8-0.5c-0.2-0.4-0.4-0.7-0.6-1.1c-0.2-0.3-0.4-0.7-0.6-1    c-0.1-0.3-0.3-0.5-0.4-0.8c0-0.1-0.2-0.1-0.2-0.1c-0.5,0-1,0-1.5,0c-0.2,0-0.3,0.1-0.3,0.4c0,0.9,0,1.8,0,2.7c0,0.4,0,0.4-0.4,0.4    c-0.4,0-0.8,0-1.2,0c-0.3,0-0.4-0.1-0.4-0.4C67.7,10,67.7,8.5,67.6,7C67.7,7,67.6,7,67.6,7z M71.1,6.5C71.1,6.5,71.1,6.5,71.1,6.5    c0.4,0,0.7,0,1.1,0c0.6,0,1-0.4,1.1-1c0-0.2,0-0.4,0-0.6c-0.1-0.6-0.5-1-1.1-1.1c-0.7,0-1.4,0-2.2,0c-0.2,0-0.3,0.1-0.3,0.3    c0,0.7,0,1.4,0,2c0,0.2,0.1,0.3,0.3,0.3C70.3,6.5,70.7,6.5,71.1,6.5z"/>
		<path class="st0" d="M78.9,7c0-1.5,0-3,0-4.4c0-0.5,0.1-0.5,0.5-0.5c1,0,2,0,3,0c0.9,0,1.7,0.2,2.5,0.6c0.7,0.4,1.3,0.9,1.8,1.6    c0.5,0.7,0.7,1.4,0.9,2.2c0.2,1.1-0.1,2.1-0.6,3c-0.4,0.7-0.9,1.3-1.5,1.7c-0.5,0.3-1.2,0.6-1.8,0.7C83.2,12,82.6,12,82,12    c-0.8,0-1.7,0-2.6,0C79,12,79,12,78.9,11.5C78.9,10,78.9,8.5,78.9,7C78.9,7,78.9,7,78.9,7z M81,7c0,0.9,0,1.8,0,2.8    c0,0.2,0.1,0.4,0.3,0.4c0.8,0.1,1.6,0.1,2.4-0.2c1-0.3,1.7-1.1,1.9-2.1c0.3-1.2,0.1-2.3-0.8-3.2c-0.4-0.3-0.7-0.6-1.2-0.7    c-0.7-0.1-1.4-0.1-2.1-0.2C81,3.9,81,4,81,4.3C81,5.2,81,6.1,81,7z"/>
		<path class="st0" d="M111.3,7c0-1.5,0-3,0-4.5c0-0.4,0-0.4,0.4-0.4c0.3,0,0.7,0,1,0c0.5,0,0.5,0.1,0.5,0.5c0,1,0,2,0,3    c0,0.4,0,0.4,0.4,0.4c1.2,0,2.4,0,3.6,0c0.3,0,0.4-0.1,0.4-0.4c0-1,0-2.1,0-3.1c0-0.4,0.1-0.5,0.5-0.5c0.4,0,0.7,0,1.1,0    c0.4,0,0.4,0.1,0.4,0.4c0,2.7,0,5.4,0,8.1c0,0.3,0,0.7,0,1c0,0.3-0.1,0.4-0.4,0.4c-0.4,0-0.8,0-1.2,0c-0.4,0-0.5-0.2-0.5-0.5    c0-1,0-2,0-3.1c0-0.1,0-0.2,0-0.3c0-0.1-0.1-0.2-0.2-0.2c-0.9,0-1.9,0-2.8,0c-0.3,0-0.7,0-1-0.1c-0.2,0-0.3,0.2-0.3,0.4    c0,0.7,0,1.4,0,2c0,0.4,0,0.8,0,1.2c0,0.4-0.1,0.5-0.5,0.5c-0.4,0-0.8,0-1.2,0c-0.3,0-0.3-0.1-0.3-0.4C111.3,10,111.3,8.5,111.3,7    C111.3,7,111.3,7,111.3,7z"/>
		<path class="st0" d="M94.3,2c0.3,0,0.5,0,0.8,0c0.2,0,0.3,0.1,0.3,0.3c0.2,0.6,0.5,1.2,0.7,1.7c0.2,0.5,0.4,1,0.6,1.6    c0.2,0.5,0.4,0.9,0.6,1.4c0.2,0.5,0.4,0.9,0.6,1.4c0.2,0.5,0.4,1.1,0.6,1.6c0.2,0.6,0.4,1.1,0.6,1.7c0.1,0.2-0.1,0.3-0.3,0.3    c-0.5,0-1,0-1.5,0c-0.1,0-0.2-0.2-0.3-0.3c-0.2-0.6-0.5-1.1-0.6-1.7c-0.1-0.5-0.4-0.4-0.7-0.4c-1,0-2.1,0-3.1,0    c-0.3,0-0.4,0.1-0.4,0.3c-0.2,0.6-0.4,1.2-0.6,1.8c-0.1,0.1-0.3,0.3-0.4,0.3c-0.4,0-0.9,0-1.3,0c-0.3,0-0.4-0.2-0.3-0.5    c0.2-0.6,0.5-1.3,0.8-1.9c0.2-0.6,0.4-1.2,0.7-1.8C91,7.4,91.2,7,91.4,6.6c0.2-0.5,0.4-1,0.6-1.5C92,5,92.1,4.8,92.2,4.6    c0.3-0.8,0.6-1.6,1-2.4c0-0.1,0.2-0.2,0.3-0.2C93.7,2,94,2,94.3,2C94.3,2,94.3,2,94.3,2z M94.3,4.5c-0.1,0.1-0.1,0.1-0.2,0.2    c-0.1,0.3-0.3,0.6-0.4,1c-0.2,0.6-0.4,1.2-0.6,1.8c-0.1,0.3,0,0.4,0.3,0.4c0.6,0,1.2,0,1.8,0c0.2,0,0.3-0.1,0.3-0.3    c0-0.1-0.1-0.2-0.1-0.3c-0.2-0.6-0.4-1.2-0.6-1.7C94.6,5.2,94.5,4.9,94.3,4.5z"/>
		<path class="st0" d="M104.4,12.1c-0.7,0.1-1.6-0.2-2.4-0.6c-0.3-0.2-0.6-0.5-0.9-0.7c-0.1,0,0-0.3,0-0.3c0.3-0.3,0.6-0.6,0.9-0.9    c0,0,0.2,0,0.3,0c0.3,0.2,0.6,0.4,0.9,0.6c0.8,0.4,1.7,0.5,2.5,0c0.5-0.3,0.7-0.9,0.5-1.4c-0.1-0.3-0.5-0.5-0.7-0.6    c-0.6-0.3-1.2-0.4-1.8-0.6c-0.5-0.1-0.9-0.3-1.3-0.6c-0.5-0.4-0.9-1-1-1.7c-0.1-0.9,0.2-1.8,0.9-2.4c0.3-0.3,0.7-0.5,1.1-0.6    c0.5-0.2,1-0.3,1.5-0.2c0.7,0.1,1.5,0.2,2.1,0.6c0.2,0.2,0.5,0.3,0.7,0.5c0.2,0.1,0.1,0.3,0,0.4c-0.3,0.3-0.5,0.5-0.8,0.8    c-0.1,0.1-0.3,0.1-0.4,0c-0.5-0.4-1.1-0.6-1.7-0.5c-0.4,0-0.9,0.2-1.2,0.5c-0.3,0.3-0.3,1,0.1,1.3c0.5,0.4,1,0.6,1.6,0.7    c0.9,0.3,1.7,0.5,2.4,1.2c0.2,0.2,0.4,0.6,0.5,0.9c0.2,0.4,0.2,0.8,0.1,1.3c-0.1,1-0.7,1.8-1.6,2.3    C106.1,12.1,105.4,12.1,104.4,12.1z"/>
	</g>
</g>
</svg>