<?xml version="1.0" encoding="UTF-8"?>
<!-- Generator: Adobe Illustrator 19.2.0, SVG Export Plug-In . SVG Version: 6.00 Build 0)  -->
<svg version="1.1" id="Layer_1" xmlns="http://www.w3.org/2000/svg" xmlns:xlink="http://www.w3.org/1999/xlink" x="0px" y="0px" viewBox="0 0 75 75" style="enable-background:new 0 0 75 75;" xml:space="preserve">
<style type="text/css">
	.st0{fill:#A5A7AA;}
	.st1{fill:#FFFFFF;}
</style>
<rect class="st0" width="75" height="75"/>
<g>
	<path class="st1" d="M61.2,24H13.8c-1.6,0-2.9-1.3-2.9-2.9v0c0-1.6,1.3-2.9,2.9-2.9h47.3c1.6,0,2.9,1.3,2.9,2.9v0   C64.1,22.7,62.8,24,61.2,24z"/>
	<path class="st1" d="M61.2,40.4H13.8c-1.6,0-2.9-1.3-2.9-2.9v0c0-1.6,1.3-2.9,2.9-2.9h47.3c1.6,0,2.9,1.3,2.9,2.9v0   C64.1,39.1,62.8,40.4,61.2,40.4z"/>
	<path class="st1" d="M61.2,56.9H13.8c-1.6,0-2.9-1.3-2.9-2.9v0c0-1.6,1.3-2.9,2.9-2.9h47.3c1.6,0,2.9,1.3,2.9,2.9v0   C64.1,55.5,62.8,56.9,61.2,56.9z"/>
</g>
</svg>