<?xml version="1.0" encoding="UTF-8"?>
<!-- Generator: Adobe Illustrator 19.2.0, SVG Export Plug-In . SVG Version: 6.00 Build 0)  -->
<svg version="1.1" id="Layer_1" xmlns="http://www.w3.org/2000/svg" xmlns:xlink="http://www.w3.org/1999/xlink" x="0px" y="0px" viewBox="0 0 312.9 51" style="enable-background:new 0 0 312.9 51;" xml:space="preserve">
<style type="text/css">
	.st0{fill:#FFFFFF;}
</style>
<path class="st0" d="M3.8,43.5c-0.6,0-1.2-0.4-1.4-1C1.1,39,0.4,20.4,0.1,9.6C0,8,0,7,0,7c0-0.8,0.6-1.5,1.4-1.5  c0.8,0,1.5,0.6,1.5,1.4c0,0,0,1,0.1,2.5c0.5,17.5,1.4,29.8,2.2,32c0.3,0.8-0.1,1.6-0.9,1.9C4.2,43.5,4,43.5,3.8,43.5z"/>
<path class="st0" d="M27.5,48.6c-0.6,0-1.2-0.4-1.4-1C25.2,45,25.1,35.6,25,23.4c0-3.7,0-6.9-0.1-9c0-1.6-0.1-2.6-0.1-2.6  c0-0.8,0.6-1.5,1.4-1.5c0.8,0,1.5,0.6,1.5,1.4c0,0,0,1,0.1,2.5c0.1,2.1,0.1,5.3,0.1,9c0,8.3,0.1,20.9,0.9,23.2  c0.3,0.8-0.1,1.6-0.9,1.9C27.8,48.5,27.7,48.6,27.5,48.6z"/>
<path class="st0" d="M5.6,25.7c-0.6,0-1.1-0.3-1.3-0.8c-0.3-0.7,0-1.6,0.7-2c6.6-3.1,12.3-9.5,13-13.2c0.1-0.4,0.1-1-0.1-1.3  c-2-2.2-4.3-1.4-4.3-1.4l-0.2,0.1H13c-2.4,0-8.6,2.7-10.8,3.8c-0.7,0.3-1.6,0-2-0.7c-0.4-0.7,0-1.6,0.7-2c0.8-0.4,8.2-3.9,11.9-4.1  c1-0.3,4.3-0.9,7.2,2.2c0.6,0.7,1.3,1.9,0.9,3.9c-0.9,4.5-7,11.7-14.6,15.3C6,25.6,5.8,25.7,5.6,25.7z"/>
<path class="st0" d="M26.3,7.4c-0.8,0-1.4-0.6-1.5-1.4l-0.1-2.7c0-0.8,0.6-1.5,1.4-1.5c0.8,0,1.5,0.6,1.5,1.4l0.1,2.7  C27.8,6.7,27.2,7.3,26.3,7.4C26.4,7.4,26.3,7.4,26.3,7.4z"/>
<path class="st0" d="M131.5,15.7c-0.8,0.1-1.5-0.5-1.6-1.3l-0.2-1.8c-0.1-0.8,0.5-1.5,1.3-1.6c0.8-0.1,1.5,0.5,1.6,1.3l0.2,1.8  C132.9,14.8,132.4,15.6,131.5,15.7C131.5,15.7,131.5,15.7,131.5,15.7z"/>
<path class="st0" d="M42.5,45.3c-0.4,0-0.7,0-1.1,0c-0.7-0.1-1.3-0.7-1.3-1.4c-0.2-7.7,1.3-16.3,2.3-20.7c0.9-4.2,1.6-7.8,2-11.7  c-1.9,1.2-4.6,3.2-7,5.1c-0.6,0.5-1.6,0.4-2.1-0.2c-0.5-0.6-0.4-1.6,0.2-2.1c1.9-1.5,8.1-6.3,10.2-6.8c0.5-0.1,0.9,0,1.3,0.3  c0.3,0.3,0.5,0.8,0.5,1.2c-0.4,5.1-1.2,9.4-2.3,14.7c-0.8,4-2.2,11.6-2.2,18.6c3.9-0.2,8.1-2.1,10.4-3.4c0.7-0.4,1.6-0.1,2,0.6  c0.4,0.7,0.1,1.6-0.6,2C52.2,43,47.2,45.3,42.5,45.3z"/>
<path class="st0" d="M61.1,46.9c-0.3,0-0.5,0-0.6,0c-0.6-0.1-1-0.5-1.3-0.9c-0.5-0.9-0.3-1.9,0-2.9c0-0.2,0.1-0.4,0.1-0.6  c0.2-1.1,2.8-12.4,3.7-17.4c1-5.3,1.8-12,1.9-15.9c-4,1-7.9,3.9-8,3.9c-0.7,0.5-1.6,0.3-2.1-0.3c-0.5-0.7-0.3-1.6,0.3-2.1  c0.2-0.2,5.7-4.2,11-4.8c0.4,0,0.8,0.1,1.1,0.3c0.3,0.3,0.5,0.6,0.5,1C68,11,67,19.4,65.8,25.6c-0.9,5.1-3.5,16.5-3.7,17.6  c-0.1,0.2-0.1,0.4-0.2,0.7c0,0.1,0,0.1,0,0.2c2.3-0.2,7.8-1,9.4-1.5c0.8-0.3,1.6,0.2,1.9,0.9c0.3,0.8-0.2,1.6-0.9,1.9  C70.4,45.9,63.4,46.9,61.1,46.9z"/>
<path class="st0" d="M76.4,45.8c-0.1,0-0.2,0-0.2,0c-0.8-0.1-1.3-0.9-1.2-1.7c0.2-1.1,4.5-27.4,6.5-34.3c0.2-0.6,0.7-2.4,2.2-2.4  c0,0,0,0,0.1,0c1.9,0,2.5,2.4,3.5,6.7l0.2,0.7c1,4.2,6.6,26.2,7.8,28.8c0.3,0.7,0,1.6-0.7,1.9c-0.7,0.3-1.6,0-2-0.7  c-1.6-3.4-8-29.1-8-29.3l-0.2-0.7c-0.1-0.6-0.4-1.5-0.6-2.4c-2.1,8.8-5.9,32-6,32.2C77.7,45.3,77.1,45.8,76.4,45.8z"/>
<path class="st0" d="M79.8,35.3c-0.9,0-1.4,0-1.5,0c-0.8,0-1.4-0.7-1.4-1.6c0-0.8,0.7-1.4,1.6-1.4l0,0c0.1,0,7.9,0.4,16.2-2.5  c0.8-0.3,1.6,0.1,1.9,0.9c0.3,0.8-0.1,1.6-0.9,1.9C88.9,35,82.6,35.3,79.8,35.3z"/>
<path class="st0" d="M116.1,41c-1.6,0.2-2.6-1.7-3.2-3.3c-0.3-0.7-0.5-1.5-0.8-2.3c-0.5-1.4-1-2.9-1.4-3.7c-0.5-1.2-1.2-2-1.2-2  c-0.5-0.6-0.5-1.5,0.1-2.1c0.6-0.5,1.5-0.5,2.1,0.1c0.1,0.1,1,1.2,1.7,2.8c0.4,0.9,0.9,2.4,1.4,3.9c0.3,0.8,0.6,1.6,0.8,2.3  c0,0.1,0,0.1,0.1,0.2c0.7-1.6,1.5-3.9,1.9-5l0-0.1c0.3-0.9,0.7-2,1.8-2.2c1.2-0.2,2.1,0.9,2.4,1.4c0.4,0.6,2.1,2.6,3.4,4.1  c0-0.3,0.1-0.6,0.1-0.8c0.1-0.5,0.1-1,0.2-1.4c0.3-1.7,1.5-5.3,1.5-5.5c0.3-0.8,1.1-1.2,1.9-0.9c0.8,0.3,1.2,1.1,0.9,1.9  c-0.3,1-1.2,3.8-1.4,5c-0.1,0.3-0.1,0.8-0.2,1.3c-0.4,2.8-0.6,4.3-1.8,4.7c-0.6,0.2-1.2,0-1.7-0.4c-0.6-0.6-3.3-3.7-4.6-5.4  c-0.3,0.9-0.8,2.3-1.3,3.5C117.5,40.3,117.1,40.9,116.1,41z"/>
<path class="st0" d="M136.4,38.9c-0.7,0.1-1.3-0.3-1.5-1c-2.2-6-3.2-15-3.3-15.4c-0.1-0.8,0.5-1.5,1.3-1.6c0.8-0.1,1.5,0.5,1.6,1.3  c0,0.1,1.1,9.1,3.1,14.8c0.3,0.8-0.1,1.6-0.9,1.9C136.6,38.8,136.5,38.9,136.4,38.9z"/>
<path class="st0" d="M145.9,39c-0.6,0.1-1.1-0.2-1.4-0.7c-4.2-7.3-4.9-35.6-4.9-36.8c0-0.8,0.6-1.5,1.4-1.5c0.8,0,1.5,0.6,1.5,1.4  c0.2,8,1.4,29.9,4.5,35.4c0.4,0.7,0.2,1.6-0.5,2C146.2,39,146,39,145.9,39z"/>
<path class="st0" d="M165.2,42.9c-0.6,0.1-1.1-0.2-1.4-0.7c-0.2-0.3-0.2-0.4-0.3-0.5c-0.5-0.7-0.5-0.7-1.8-5.9  c-0.7-2.9-1.4-4.7-1.9-5.8c-1.5,2.2-3.3,5.6-3.9,7c-0.3,0.5-0.8,0.8-1.4,0.8c-0.6,0-1.1-0.4-1.3-0.9c-2.3-5.5-2.8-12.4-2.9-17.5  c-0.3,0.6-0.7,1.2-1.1,1.9c-4,6.7-11,6.2-11.3,6.2c-0.8-0.1-1.4-0.8-1.3-1.6c0.1-0.8,0.8-1.4,1.6-1.3c0.2,0,5.4,0.2,8.4-4.8  c3.3-5.6,3.9-8,3.9-8c0.2-0.7,0.9-1.2,1.7-1.1c0.8,0.1,1.3,0.8,1.2,1.6c0,0.1-1.1,11.2,1.3,20.2c1.2-2.2,2.8-4.9,4.2-6.2  c0.6-0.5,1.5-0.5,2,0c0.3,0.3,1.9,2.1,3.6,8.7c0.7,2.9,1.1,4.5,1.2,4.8h0c0,0,0,0,0,0c0.2,0.2,0.3,0.4,0.6,0.9  c0.4,0.7,0.1,1.6-0.6,2C165.6,42.9,165.4,42.9,165.2,42.9z"/>
<path class="st0" d="M112.9,48.5c-0.6,0-1.2-0.4-1.4-1.1c-0.2-0.8,0.3-1.6,1-1.8c6.6-1.8,44.2-3.7,45.9-3.8c0.8-0.1,1.5,0.5,1.6,1.3  c0.1,0.8-0.5,1.5-1.3,1.6c-0.4,0-39.1,2-45.5,3.8C113.2,48.4,113.1,48.5,112.9,48.5z"/>
<path class="st0" d="M182.7,46.9c-0.6,0-1.2-0.4-1.4-1c-3.5-10.5-2-41.4-1.9-42.7c0-0.8,0.7-1.4,1.5-1.4c0.8,0,1.4,0.7,1.4,1.5  c0,0.3-1.5,31.6,1.8,41.6c0.3,0.8-0.2,1.6-0.9,1.9C183,46.8,182.9,46.9,182.7,46.9z"/>
<path class="st0" d="M182.7,26.5c-0.6,0-1.2-0.4-1.4-1c-0.3-0.8,0.2-1.6,0.9-1.9c1.5-0.5,8.3-4.2,10.4-7.3c2.9-4.4,3.8-7.1,0.6-9.5  c-2-1.5-4.7-1.2-6.7-0.7c-2.3,0.6-4.2,1.6-4.2,1.6c-0.7,0.4-1.6,0.1-2-0.6c-0.4-0.7-0.1-1.6,0.6-2c0.4-0.2,8.7-4.7,14.1-0.6  c6,4.5,2.1,10.3,0,13.4c-2.5,3.8-9.8,7.8-11.9,8.5C183,26.4,182.8,26.5,182.7,26.5z"/>
<path class="st0" d="M204.6,47.2c-2.5,0-4.9-2.1-6.5-5.9c-2.8-6.6-2.9-18.4-2.9-19c0-0.8,0.7-1.5,1.5-1.5c0,0,0,0,0,0  c0.8,0,1.5,0.7,1.5,1.5c0,0.1,0.1,11.8,2.6,17.8c1.1,2.6,2.6,4.2,3.9,4.2c1.3-0.1,2.5-1.9,3.4-5c2.8-9.8,4.3-18.2,3.8-22  c-0.1-0.8,0.5-1.5,1.3-1.6c0.8-0.1,1.5,0.5,1.6,1.3c0.8,6.1-2.4,18.3-3.9,23.2c-1.6,5.6-4.2,7-6,7.1  C204.8,47.2,204.7,47.2,204.6,47.2z"/>
<path class="st0" d="M223,44.1c-0.7,0-1.3-0.5-1.4-1.1c-5-21.2-2.2-32.5-2.1-33l0.2-0.9l0.9-0.2c0.2-0.1,6-1.3,10.5,1.7  c2.6,1.6,3.2,3.5,3.3,4.8c0.1,1.8-0.8,3.7-2.5,5.2c-0.7,0.6-1.5,1.1-2.2,1.5c-0.6,0.3-1.4,0.9-1.7,1.2c0,0.1,0.1,0.1,0.2,0.3  l0.3,0.3c1.9,2.2,7.6,8.7,9.5,10c0.7,0.5,0.8,1.4,0.3,2c-0.5,0.7-1.4,0.8-2,0.3c-1.9-1.3-6.1-6-10-10.5l-0.3-0.3  c-0.8-0.9-1.1-1.8-0.9-2.6c0.2-1.5,1.7-2.4,3.1-3.3c0.6-0.4,1.3-0.8,1.8-1.2c1-0.9,1.6-1.9,1.5-2.8c-0.1-0.9-0.7-1.7-1.9-2.5  c-2.6-1.7-5.8-1.6-7.4-1.4c-0.2,1.2-0.5,3.6-0.6,7.1c-0.1,4.8,0.4,12.9,2.9,23.6c0.2,0.8-0.3,1.6-1.1,1.8  C223.2,44.1,223.1,44.1,223,44.1z"/>
<path class="st0" d="M245.7,51c-0.7,0-1.3-0.5-1.4-1.2c-2.2-10.9-3.8-46.3-3.8-47.8c0-0.8,0.6-1.5,1.4-1.5c0.8,0,1.5,0.6,1.5,1.4  c0,0.4,1.7,36.7,3.8,47.3c0.2,0.8-0.4,1.6-1.2,1.7C245.9,51,245.8,51,245.7,51z"/>
<path class="st0" d="M242.4,28.7c-0.6,0-1.2-0.4-1.4-1c-0.2-0.8,0.2-1.6,1-1.8c0.1,0,5.2-1.4,7.1-2.7c2-1.4,5.5-4.9,5.7-6.5  c0.2-1.9,0.1-4.8-3.5-8.1c-1.6-1.5-4.3-1.5-6.2-1.3c-2.3,0.3-4.1,1-4.1,1c-0.8,0.3-1.6-0.1-1.9-0.8c-0.3-0.8,0.1-1.6,0.8-1.9  c0.4-0.1,8.8-3.4,13.4,0.9c3.5,3.2,4.9,6.7,4.4,10.7c-0.2,1.7-1.7,3.7-2.9,5c-1.4,1.6-3.1,2.8-4.4,3.7c-2.2,1.5-7.4,2.8-7.6,2.9  C242.7,28.6,242.6,28.7,242.4,28.7z"/>
<path class="st0" d="M265.2,44.4c-0.1,0-0.3,0-0.4,0c-2.5-0.3-4.5-3.1-5.4-5.7c-1.1-3.5-0.7-8.5-0.2-11.9c0.4-2.9,3.6-12.6,3.7-13  c0,0,0,0,0,0c-0.6-0.3-1.2-0.6-1.8-0.8c-0.8-0.2-1.2-1.1-1-1.8c0.2-0.8,1.1-1.2,1.8-1c6.7,2.1,13.8,10.2,12.5,18.7  c-0.8,5.4-2.6,8.7-5.1,13.1C268.2,44.1,266.3,44.4,265.2,44.4z M265.5,15.4c-1,3.2-3.1,9.8-3.4,11.7c-0.2,1.8-1,7.3,0.1,10.7  c0.6,1.8,1.9,3.5,2.9,3.7c0.5,0.1,1.2-0.2,1.8-1c2.6-3.9,4-7.1,4.8-12C272.4,23.2,268.9,18.3,265.5,15.4z"/>
<path class="st0" d="M283.9,45.9c-3.7,0-7-1.5-8-2.4c-0.8-0.7-1-1.6-0.8-2.6c0.4-1.5,2.1-2.7,4.2-2.9c0.8-0.1,1.5,0.5,1.6,1.3  c0.1,0.8-0.5,1.5-1.3,1.6c-0.8,0.1-1.3,0.4-1.5,0.6c1.3,0.7,4.7,2,7.9,1.2c2.9-0.7,3-4.1,2.9-6.6c-0.1-1.9-3.5-8.6-5.3-11.1  c-0.2-0.2-0.4-0.5-0.6-0.8c-2-2.8-5.3-7.4-5.8-12.7c-0.3-3.7,1-5.4,2.1-6.2c1.4-1,3.4-1.1,5.3-0.3c3,1.3,4,5.5,4.1,6  c0.2,0.8-0.3,1.6-1.1,1.7c-0.8,0.2-1.6-0.3-1.7-1.1l0,0c-0.2-0.8-1-3.3-2.4-4c-0.7-0.3-1.7-0.5-2.4,0c-0.7,0.5-1,1.8-0.9,3.5  c0.4,4.5,3.4,8.7,5.2,11.2c0.2,0.3,0.4,0.5,0.6,0.8c1.6,2.3,5.7,9.8,5.8,12.6c0.2,3.7-0.5,8.4-5.1,9.6  C285.7,45.8,284.8,45.9,283.9,45.9z"/>
<path class="st0" d="M307.9,10.9c-4,0-13.2-2-13.5-2c-0.8-0.2-1.2-1.1-0.9-1.8c0.2-0.8,1.1-1.2,1.8-0.9c1.7,0.6,10.8,2.2,13.6,1.8  c0.8-0.1,1.5,0.5,1.6,1.3c0.1,0.8-0.5,1.5-1.3,1.6C308.8,10.9,308.3,10.9,307.9,10.9z"/>
<path class="st0" d="M302.3,44.5c-1,0-1.9-0.1-2.5-0.3c-0.8-0.3-1.1-0.8-1.3-1.2c-0.1-0.2-0.1-0.4-0.3-0.6  c-0.6-1.4-1.6-3.6-2.7-11.5c-1.3-9.3-0.3-24.1-0.2-24.8c0.1-0.8,0.8-1.4,1.6-1.4c0.8,0.1,1.4,0.8,1.4,1.6c0,0.2-1.1,15.2,0.2,24.2  c1.1,7.5,1.9,9.6,2.5,10.8c0,0.1,0.1,0.2,0.1,0.3c1.8,0.3,8.2-0.6,9.5-1.3c0.7-0.4,1.6-0.1,2,0.6c0.4,0.7,0.1,1.6-0.6,2  C310.7,43.5,305.7,44.5,302.3,44.5z"/>
<path class="st0" d="M301.3,25.5c-2.3,0-4.3-0.2-4.8-0.2c-0.8-0.1-1.4-0.8-1.3-1.6c0.1-0.8,0.8-1.4,1.6-1.3  c3.2,0.3,8.9,0.3,10.8-0.5c0.7-0.3,1.6,0,2,0.7c0.3,0.7,0,1.6-0.7,2C307.1,25.3,304,25.5,301.3,25.5z"/>
</svg>