<?xml version="1.0" encoding="UTF-8"?>
<!-- Generator: Adobe Illustrator 16.0.4, SVG Export Plug-In . SVG Version: 6.00 Build 0)  -->
<!DOCTYPE svg PUBLIC "-//W3C//DTD SVG 1.1//EN" "http://www.w3.org/Graphics/SVG/1.1/DTD/svg11.dtd">
<svg version="1.1" id="Layer_1" xmlns="http://www.w3.org/2000/svg" xmlns:xlink="http://www.w3.org/1999/xlink" x="0px" y="0px" width="374px" height="366px" viewBox="0 0 374 366" enable-background="new 0 0 374 366" xml:space="preserve">
<title>Page 1@2x</title>
<desc>Created with Sketch.</desc>
<g id="Page-1">
	<g transform="translate(0.000000, -1.000000)">
		<g id="Group-33" transform="translate(0.000000, 0.774000)">
			<path id="Fill-1" fill="#414042" d="M184.126,339.353c-0.672,0-1.354-0.117-2.02-0.363L12.932,276.246     c-3.009-1.116-4.543-4.459-3.427-7.467c1.115-3.008,4.459-4.545,7.467-3.428l169.175,62.744c3.008,1.114,4.542,4.459,3.426,7.467     C188.705,337.904,186.485,339.353,184.126,339.353"/>
			<path id="Fill-3" fill="#414042" d="M360.271,217.119c-0.677,0-1.365-0.117-2.036-0.369L76.123,111.093     c-3.005-1.125-4.529-4.473-3.404-7.478c1.126-3.005,4.472-4.529,7.479-3.403L362.31,205.869c3.006,1.125,4.528,4.473,3.403,7.478     C364.84,215.679,362.625,217.119,360.271,217.119"/>
			<path id="Fill-5" fill="#414042" d="M174.521,366c-0.668,0-1.347-0.115-2.01-0.359c-3.011-1.111-4.551-4.452-3.441-7.461     L275.347,70.024c1.11-3.011,4.451-4.551,7.461-3.44c3.011,1.109,4.55,4.45,3.438,7.46L179.972,362.199     C179.105,364.546,176.884,366,174.521,366"/>
			<path id="Fill-7" fill="#414042" d="M82.496,344.156c-0.668,0-1.349-0.115-2.012-0.36c-3.009-1.113-4.549-4.453-3.436-7.464     l116.965-316.66c1.113-3.01,4.455-4.546,7.463-3.437c3.01,1.112,4.549,4.453,3.437,7.463L87.946,340.359     C87.08,342.705,84.858,344.156,82.496,344.156"/>
			<g id="Group-11">
				<g id="Clip-10">
				</g>
				<defs>
					<filter id="Adobe_OpacityMaskFilter" filterUnits="userSpaceOnUse" x="0" y="0.227" width="117.9" height="299.777">
						<feColorMatrix type="matrix" values="1 0 0 0 0  0 1 0 0 0  0 0 1 0 0  0 0 0 1 0"/>
					</filter>
				</defs>
				<mask maskUnits="userSpaceOnUse" x="0" y="0.227" width="117.9" height="299.777" id="mask-2">
					<g filter="url(#Adobe_OpacityMaskFilter)">
						<polygon id="path-1" fill="#FFFFFF" points="0,300.003 0,0.227 117.899,0.227 117.899,300.003       "/>
					</g>
				</mask>
				<path id="Fill-9" mask="url(#mask-2)" fill="#414042" d="M5.81,300.003c-0.667,0-1.346-0.115-2.009-0.359      c-3.011-1.112-4.551-4.452-3.44-7.461L106.637,4.027c1.111-3.01,4.45-4.55,7.461-3.44c3.011,1.11,4.551,4.45,3.441,7.461      L11.262,296.202C10.396,298.55,8.174,300.003,5.81,300.003"/>
			</g>
			<g id="Group-14" transform="translate(295.000000, 106.000000)">
				<path id="Fill-12" fill="#414042" d="M5.937,194.933c-0.664,0-1.34-0.115-2-0.357c-3.013-1.105-4.559-4.441-3.452-7.455      L67.72,3.848c1.106-3.012,4.442-4.557,7.455-3.453c3.012,1.105,4.56,4.442,3.453,7.455L11.392,191.123      C10.529,193.476,8.304,194.933,5.937,194.933"/>
			</g>
			<polygon id="Fill-15" fill="#E4E5E6" points="162.438,158.325 183.198,165.762 185.986,159.564 230.914,176.296 205.197,243.533      140.749,217.195    "/>
			<polygon id="Fill-17" fill="#E4E5E6" points="134.861,231.449 197.76,257.166 173.901,317.894 110.075,294.037    "/>
			<polygon id="Fill-19" fill="#E4E5E6" points="251.982,184.042 243.927,204.182 301.867,228.351 300.629,230.83 311.473,234.856      315.5,223.393 312.401,221.843 313.951,217.505 316.74,217.505 319.529,208.83    "/>
			<path id="Fill-21" fill="#E4E5E6" d="M244.236,208.519l-6.507,19.211l-2.478,5.888c0,0-5.889,1.239-6.817,4.647     c-0.931,3.407,3.718,12.394,7.746,15.182c4.028,2.789,9.604,4.957,9.604,4.957l-2.168,4.339c0,0,8.676,2.788,12.703,3.098     c4.028,0.312,11.154,0.619,11.154,0.619l29.125,11.155l14.253-37.49l-6.197-2.479l0.62-2.789L244.236,208.519z"/>
			<path id="Fill-23" fill="#E4E5E6" d="M301.867,151.509l6.816,2.789l-6.506,17.352l-1.86-0.311l-3.408,5.577l-38.11-15.491     l26.336-67.856l40.59,17.35c0,0,17.66,7.437,21.689,14.254c1.576,2.667,2.788,9.295,2.17,12.703     c-0.621,3.408-5.888,13.014-9.295,15.183c-3.41,2.169-13.324,0.619-20.451-1.55c-7.125-2.168-13.942-7.746-13.942-7.746     s-3.099-3.097-4.338-7.436c-1.24-4.338-2.169-8.985-1.24-10.844c0.931-1.858,1.24-4.029,1.24-4.029l-4.958-2.169l-10.534,25.098     L301.867,151.509z"/>
			<polygon id="Fill-25" fill="#E4E5E6" points="97.681,134.158 109.765,138.805 101.089,159.565 89.624,154.917    "/>
			<polygon id="Fill-27" fill="#E4E5E6" points="80.019,132.608 94.272,137.256 92.103,144.073 77.54,138.805    "/>
			<polygon id="Fill-29" fill="#E4E5E6" points="54.922,196.126 82.808,207.281 89.624,189.931 113.792,199.226 106.976,216.576      114.722,220.294 90.554,283.192 31.374,259.024    "/>
			<polygon id="Fill-31" fill="#009244" points="215.421,12.08 171.423,128.582 238.659,153.988 284.206,36.558    "/>
		</g>
		<g id="Group-363" transform="translate(36.000000, 112.774000)">
			<path id="Fill-193" fill="#FFFFFF" d="M103.608,18.146c0.064,0.281,0.262,1.159,1.559,1.646c0.216,0.082,0.449,0.147,0.7,0.141     c0.51-0.016,0.708-0.3,0.786-0.509c0.146-0.391-0.07-0.632-0.232-0.782c-0.122-0.103-0.135-0.119-0.643-0.458l-0.682-0.433     c-0.355-0.243-0.531-0.358-0.693-0.507c-0.236-0.219-0.854-0.876-0.473-1.894c0.437-1.167,1.701-1.547,3.145-1.007     c1.324,0.495,1.793,1.415,2.006,2.17l-1.204,0.354c-0.093-0.383-0.266-1.143-1.25-1.51c-0.618-0.231-1.261-0.155-1.438,0.315     c-0.195,0.522,0.34,0.841,0.858,1.154l0.584,0.378c0.76,0.483,1.799,1.258,1.309,2.573c-0.528,1.41-2.045,1.487-3.35,0.998     c-0.34-0.127-0.711-0.305-1.044-0.549c-0.364-0.274-0.977-0.841-1.157-1.763L103.608,18.146z"/>
			<polygon id="Fill-195" fill="#FFFFFF" points="117.462,18.408 113.815,24.048 112.476,23.547 113.212,18.951 110.726,22.891      109.386,22.39 110.405,15.767 111.579,16.207 110.663,21.202 113.372,16.878 114.442,17.278 113.665,22.325 116.278,17.966         "/>
			<path id="Fill-197" fill="#FFFFFF" d="M125.702,24.666l-1.258,3.359l-0.982-0.368l0.195-0.521     c-0.752,0.334-1.42,0.242-1.934,0.05c-1.898-0.711-2.332-2.599-1.712-4.252c0.722-1.933,2.509-2.811,4.199-2.18     c1.277,0.478,1.926,1.613,1.915,2.781l-1.263,0.032c0.015-0.381,0.013-1.383-1.032-1.774c-1.158-0.434-2.101,0.364-2.554,1.575     c-0.504,1.349-0.054,2.4,0.946,2.775c0.644,0.241,1.538,0.187,2.048-0.861l-1.531-0.573l0.377-1.01L125.702,24.666z"/>
			<path id="Fill-199" fill="#FFFFFF" d="M129.374,27.399c-0.248,0.026-0.514,0.017-1.012-0.081     c-0.394-0.088-0.922-0.187-1.095,0.274c-0.127,0.34,0.095,0.621,0.513,0.779c0.53,0.198,0.996,0.094,1.207-0.123     c0.11-0.109,0.158-0.24,0.207-0.37L129.374,27.399z M127.022,25.487c0.1-0.211,0.184-0.387,0.42-0.586     c0.7-0.602,1.737-0.214,2.014-0.109c0.418,0.156,0.904,0.396,1.202,0.766c0.397,0.505,0.251,0.917,0.075,1.388l-0.863,2.306     c-0.123,0.331-0.166,0.444-0.07,0.777l-1.237-0.463c0.03-0.108,0.078-0.288,0.1-0.349c-0.297,0.107-0.853,0.186-1.453-0.038     c-0.984-0.368-1.348-1.199-1.068-1.948c0.082-0.217,0.209-0.398,0.361-0.539c0.547-0.51,1.269-0.397,1.717-0.319     c0.965,0.152,1.041,0.161,1.47,0.182c0.08-0.218,0.231-0.668-0.492-0.938c-0.435-0.163-0.722-0.113-0.88-0.011     c-0.165,0.096-0.202,0.222-0.247,0.344L127.022,25.487z"/>
			<path id="Fill-201" fill="#FFFFFF" d="M134.479,24.845l-0.395,1.054l-1.035-0.388l0.395-1.053L134.479,24.845z M133.832,26.577     l-1.629,4.352l-1.036-0.388l1.629-4.351L133.832,26.577z"/>
			<path id="Fill-203" fill="#FFFFFF" d="M135.39,27.16l1.053,0.394l-0.192,0.513c0.081-0.058,0.239-0.158,0.466-0.212     c0.333-0.094,0.775-0.057,1.114,0.07c0.498,0.186,0.839,0.573,0.946,0.95c0.133,0.466-0.043,0.935-0.254,1.501l-0.957,2.558     l-1.037-0.387l0.83-2.219c0.121-0.322,0.203-0.54,0.213-0.675c0.048-0.418-0.157-0.722-0.495-0.849     c-0.339-0.127-0.728-0.045-0.983,0.187c-0.286,0.26-0.452,0.704-0.572,1.026l-0.706,1.888l-1.055-0.393L135.39,27.16z"/>
			<path id="Fill-205" fill="#FFFFFF" d="M143.036,31.866c0.158-0.714-0.172-1.105-0.633-1.277c-0.556-0.209-1.06-0.031-1.404,0.515     L143.036,31.866z M143.562,34.067c-0.809,0.521-1.648,0.643-2.537,0.311c-1.14-0.427-1.965-1.559-1.367-3.16     c0.548-1.462,1.797-1.938,3.024-1.479c1.148,0.431,1.371,1.297,1.41,1.46c0.166,0.639-0.039,1.426-0.193,1.863l-3.22-1.205     c-0.136,0.734,0.145,1.284,0.833,1.542c0.713,0.268,1.156-0.043,1.355-0.177L143.562,34.067z"/>
			<path id="Fill-207" fill="#FFFFFF" d="M145.316,34.367c0.142,0.42,0.444,0.802,1.044,1.026c0.602,0.225,0.974,0.027,1.055-0.191     c0.103-0.278-0.184-0.466-0.313-0.543c-0.135-0.091-0.799-0.488-0.941-0.591c-0.944-0.631-0.911-1.303-0.764-1.693     c0.277-0.741,1.201-1.168,2.393-0.724c0.662,0.248,1.062,0.637,1.281,0.955c0.166,0.222,0.248,0.421,0.297,0.56l-0.996,0.409     c-0.035-0.28-0.172-0.817-0.938-1.104c-0.496-0.186-0.803-0.052-0.888,0.173c-0.118,0.314,0.173,0.522,0.695,0.826     c0.842,0.504,1.078,0.641,1.275,0.963c0.192,0.31,0.234,0.723,0.098,1.088c-0.254,0.68-1.166,1.261-2.514,0.756     c-0.775-0.29-1.449-0.819-1.8-1.555L145.316,34.367z"/>
			<path id="Fill-209" fill="#FFFFFF" d="M153.483,36.808c0.063,0.282,0.263,1.159,1.56,1.645c0.216,0.082,0.449,0.149,0.699,0.142     c0.51-0.016,0.709-0.3,0.787-0.509c0.146-0.391-0.072-0.632-0.232-0.782c-0.122-0.103-0.135-0.119-0.643-0.458l-0.683-0.434     c-0.356-0.242-0.531-0.357-0.692-0.506c-0.236-0.219-0.854-0.876-0.474-1.894c0.437-1.167,1.7-1.547,3.146-1.007     c1.323,0.496,1.793,1.415,2.006,2.17l-1.205,0.354c-0.092-0.383-0.267-1.143-1.25-1.51c-0.617-0.232-1.26-0.154-1.438,0.315     c-0.195,0.523,0.34,0.841,0.857,1.154l0.582,0.378c0.763,0.483,1.802,1.259,1.312,2.573c-0.528,1.41-2.045,1.487-3.353,0.999     c-0.338-0.128-0.709-0.306-1.045-0.55c-0.36-0.274-0.973-0.841-1.153-1.763L153.483,36.808z"/>
			<path id="Fill-211" fill="#FFFFFF" d="M160.939,37.573l-0.734,1.968c-0.205,0.539-0.291,0.774,0.205,0.96     c0.155,0.058,0.291,0.098,0.455,0.11l-0.33,0.879c-0.332-0.065-0.547-0.126-0.783-0.214c-0.217-0.081-0.948-0.354-0.95-0.961     c-0.005-0.199,0.1-0.477,0.262-0.913l0.831-2.22l-0.636-0.237l0.28-0.749l0.636,0.238l0.575-1.541l1.047,0.391l-0.577,1.541     l0.93,0.349l-0.278,0.748L160.939,37.573z"/>
			<path id="Fill-213" fill="#FFFFFF" d="M164.231,37.952L164,38.57c0.216-0.178,0.695-0.583,1.66-0.192l-0.401,1.07     c-0.229-0.075-0.625-0.214-1.037-0.091c-0.572,0.173-0.746,0.615-1.015,1.336l-0.604,1.611l-1.01-0.378l1.629-4.352     L164.231,37.952z"/>
			<path id="Fill-215" fill="#FFFFFF" d="M168.876,41.536c0.158-0.715-0.172-1.107-0.633-1.279c-0.556-0.208-1.06-0.03-1.404,0.516     L168.876,41.536z M169.4,43.737c-0.809,0.52-1.647,0.643-2.536,0.31c-1.14-0.427-1.966-1.559-1.367-3.16     c0.548-1.462,1.797-1.938,3.024-1.478c1.147,0.43,1.371,1.295,1.41,1.459c0.166,0.639-0.039,1.425-0.193,1.863l-3.219-1.205     c-0.137,0.734,0.144,1.285,0.832,1.542c0.713,0.267,1.156-0.044,1.354-0.177L169.4,43.737z"/>
			<path id="Fill-217" fill="#FFFFFF" d="M174.204,43.529c0.158-0.715-0.172-1.106-0.633-1.278c-0.556-0.209-1.06-0.031-1.403,0.515     L174.204,43.529z M174.729,45.73c-0.81,0.521-1.648,0.643-2.537,0.311c-1.138-0.427-1.966-1.56-1.367-3.161     c0.548-1.462,1.797-1.937,3.024-1.478c1.147,0.43,1.371,1.296,1.408,1.459c0.168,0.639-0.037,1.425-0.191,1.864l-3.221-1.205     c-0.135,0.733,0.144,1.283,0.832,1.541c0.715,0.268,1.158-0.043,1.356-0.177L174.729,45.73z"/>
			<path id="Fill-219" fill="#FFFFFF" d="M178.101,43.995l-0.735,1.967c-0.201,0.539-0.289,0.775,0.207,0.961     c0.156,0.058,0.289,0.097,0.453,0.11l-0.328,0.879c-0.334-0.065-0.549-0.126-0.783-0.214c-0.219-0.082-0.949-0.355-0.95-0.961     c-0.006-0.2,0.099-0.478,0.262-0.914l0.83-2.219l-0.636-0.238l0.281-0.748l0.634,0.237l0.577-1.54l1.045,0.392l-0.577,1.541     l0.933,0.347l-0.281,0.749L178.101,43.995z"/>
			<path id="Fill-221" fill="#FFFFFF" d="M173.095,158.634c0.281-0.064,1.158-0.268,1.64-1.565c0.08-0.218,0.146-0.452,0.138-0.702     c-0.019-0.512-0.304-0.706-0.513-0.783c-0.392-0.145-0.633,0.073-0.782,0.237c-0.103,0.12-0.119,0.134-0.455,0.644l-0.429,0.684     c-0.241,0.357-0.356,0.533-0.504,0.695c-0.218,0.238-0.871,0.856-1.893,0.481c-1.168-0.431-1.555-1.692-1.02-3.14     c0.488-1.324,1.406-1.799,2.16-2.018l0.358,1.202c-0.384,0.099-1.14,0.272-1.504,1.259c-0.228,0.619-0.147,1.262,0.321,1.437     c0.522,0.192,0.841-0.345,1.151-0.864l0.373-0.585c0.479-0.763,1.252-1.806,2.568-1.321c1.411,0.521,1.496,2.039,1.014,3.346     c-0.127,0.34-0.302,0.711-0.545,1.047c-0.272,0.365-0.836,0.979-1.756,1.164L173.095,158.634z"/>
			<polygon id="Fill-223" fill="#FFFFFF" points="173.292,144.779 178.95,148.4 178.454,149.744 173.856,149.027 177.809,151.496      177.312,152.838 170.686,151.849 171.118,150.672 176.118,151.566 171.781,148.876 172.178,147.803 177.229,148.557      172.855,145.965    "/>
			<path id="Fill-225" fill="#FFFFFF" d="M178.54,140.837l1.822,0.672l0.418-1.133c0.25-0.681,0.319-0.863,0.219-1.236     c-0.057-0.199-0.245-0.408-0.543-0.518c-0.141-0.052-0.313-0.086-0.504-0.057c-0.601,0.096-0.838,0.741-0.981,1.132     L178.54,140.837z M176.143,139.953l1.535,0.566l0.144-0.393c0.118-0.322,0.205-0.559,0.249-0.701     c0.107-0.287,0.201-0.578,0.167-0.828c-0.033-0.29-0.205-0.543-0.483-0.646c-0.236-0.087-0.518-0.052-0.742,0.132     c-0.231,0.192-0.285,0.312-0.603,1.146L176.143,139.953z M174.78,140.748l0.81-2.197c0.31-0.816,0.399-1.03,0.596-1.295     c0.414-0.551,1.132-0.812,1.803-0.563c0.271,0.101,0.57,0.31,0.74,0.571c0.183,0.285,0.224,0.576,0.164,0.931     c0.373-0.635,1.156-1.069,2.106-0.718c0.705,0.259,1.201,0.848,1.188,1.686c-0.004,0.443-0.108,0.752-0.366,1.45l-0.886,2.407     L174.78,140.748z"/>
			<path id="Fill-227" fill="#FFFFFF" d="M180.429,133.46c-0.241,0.652,0.108,1.316,0.911,1.612     c0.898,0.331,1.598-0.034,1.829-0.661c0.28-0.76-0.242-1.388-0.976-1.628C181.464,132.534,180.699,132.728,180.429,133.46      M184.128,134.765c-0.502,1.359-1.83,1.9-3.164,1.408s-1.953-1.771-1.474-3.069c0.447-1.212,1.675-1.937,3.127-1.413     C183.977,132.193,184.613,133.448,184.128,134.765"/>
			<path id="Fill-229" fill="#FFFFFF" d="M180.927,129.611l0.39-1.056l0.515,0.19c-0.058-0.081-0.16-0.237-0.216-0.465     c-0.094-0.332-0.06-0.775,0.065-1.114c0.183-0.498,0.567-0.843,0.943-0.951c0.467-0.133,0.938,0.04,1.504,0.248l2.565,0.946     l-0.383,1.037l-2.224-0.82c-0.324-0.12-0.541-0.2-0.676-0.209c-0.421-0.047-0.722,0.16-0.847,0.5     c-0.127,0.339-0.041,0.727,0.19,0.982c0.263,0.282,0.706,0.446,1.028,0.565l1.893,0.699l-0.39,1.054L180.927,129.611z"/>
			<path id="Fill-231" fill="#FFFFFF" d="M185.117,122.062c-0.294,0.069-0.555,0.271-0.683,0.619     c-0.261,0.707,0.25,1.28,0.938,1.535c0.079,0.029,1.391,0.502,1.767-0.517c0.2-0.541-0.021-1.177-0.966-1.517     C185.89,122.089,185.476,121.976,185.117,122.062L185.117,122.062z M182.557,119.662l6.156,2.27l-0.383,1.039l-0.418-0.156     c0.272,0.469,0.268,0.963,0.102,1.416c-0.383,1.037-1.491,1.648-2.928,1.119c-1.299-0.479-2.138-1.621-1.678-2.867     c0.157-0.428,0.432-0.791,0.919-0.988l-2.151-0.794L182.557,119.662z"/>
			<path id="Fill-233" fill="#FFFFFF" d="M189.264,113.644l-3.146-0.199l2.519,1.9L189.264,113.644z M190.378,113.708l-0.851,2.311     l1.069,0.801l-0.453,1.229l-5.39-4.345l0.482-1.309l6.931,0.17l-0.454,1.229L190.378,113.708z"/>
			<polygon id="Fill-235" fill="#FFFFFF" points="189.442,106.525 193.274,109.564 192.858,110.689 187.979,110.492      188.379,109.412 191.713,109.611 189.041,107.615    "/>
			<path id="Fill-237" fill="#FFFFFF" d="M192.544,103.113c-0.717-0.155-1.104,0.176-1.276,0.639     c-0.205,0.557-0.024,1.061,0.524,1.4L192.544,103.113z M194.741,102.576c0.526,0.807,0.651,1.646,0.323,2.535     c-0.42,1.143-1.549,1.975-3.155,1.383c-1.465-0.541-1.945-1.786-1.492-3.018c0.427-1.15,1.291-1.376,1.453-1.414     c0.64-0.172,1.426,0.029,1.865,0.182l-1.19,3.226c0.733,0.134,1.284-0.149,1.538-0.839c0.265-0.714-0.049-1.157-0.183-1.355     L194.741,102.576z"/>
			<path id="Fill-239" fill="#FFFFFF" d="M191.81,100.107l0.39-1.057l0.515,0.191c-0.058-0.082-0.16-0.237-0.216-0.467     c-0.094-0.332-0.061-0.774,0.065-1.115c0.183-0.495,0.566-0.84,0.943-0.949c0.467-0.135,0.938,0.04,1.504,0.248l2.563,0.945     l-0.381,1.037l-2.224-0.817c-0.324-0.121-0.541-0.202-0.677-0.212c-0.42-0.045-0.721,0.16-0.848,0.5     c-0.125,0.34-0.041,0.728,0.192,0.982c0.263,0.283,0.705,0.447,1.028,0.567l1.892,0.698l-0.389,1.054L191.81,100.107z"/>
			<path id="Fill-241" fill="#FFFFFF" d="M195.238,90.81l4.359,1.608l-0.385,1.046l-0.446-0.164c0.108,0.247,0.325,0.812,0.03,1.615     c-0.265,0.714-0.696,0.941-0.953,1.025c-0.485,0.158-0.896,0.008-1.549-0.234l-2.521-0.93l0.392-1.055l2.502,0.924     c0.174,0.062,0.321,0.117,0.448,0.125c0.425,0.028,0.705-0.226,0.849-0.606c0.16-0.437,0.024-0.794-0.151-1.019     c-0.229-0.263-0.506-0.373-1.113-0.608l-1.848-0.681L195.238,90.81z"/>
			<path id="Fill-243" fill="#FFFFFF" d="M198.517,86.917c-0.716-0.156-1.104,0.176-1.274,0.639c-0.207,0.557-0.025,1.06,0.522,1.4     L198.517,86.917z M200.716,86.38c0.524,0.808,0.651,1.646,0.321,2.537c-0.42,1.142-1.549,1.973-3.153,1.381     c-1.465-0.541-1.946-1.787-1.492-3.017c0.425-1.151,1.289-1.377,1.452-1.415c0.639-0.171,1.425,0.029,1.864,0.182l-1.189,3.227     c0.732,0.132,1.283-0.15,1.537-0.839c0.265-0.716-0.049-1.157-0.185-1.356L200.716,86.38z"/>
			<path id="Fill-245" fill="#FFFFFF" d="M284.844,133.029c0.28-0.065,1.156-0.271,1.631-1.571c0.08-0.218,0.146-0.451,0.139-0.701     c-0.022-0.513-0.308-0.706-0.517-0.782c-0.393-0.142-0.632,0.075-0.78,0.239c-0.103,0.121-0.119,0.135-0.453,0.646l-0.428,0.686     c-0.238,0.357-0.353,0.533-0.502,0.695c-0.216,0.238-0.867,0.861-1.89,0.488c-1.169-0.427-1.56-1.687-1.031-3.136     c0.484-1.327,1.399-1.804,2.152-2.024l0.364,1.201c-0.383,0.098-1.14,0.277-1.5,1.264c-0.227,0.619-0.145,1.264,0.326,1.435     c0.524,0.19,0.84-0.347,1.148-0.867l0.372-0.587c0.478-0.765,1.244-1.811,2.563-1.33c1.414,0.518,1.502,2.034,1.024,3.342     c-0.125,0.342-0.299,0.713-0.541,1.051c-0.271,0.365-0.834,0.98-1.752,1.17L284.844,133.029z"/>
			<polygon id="Fill-247" fill="#FFFFFF" points="284.993,119.173 290.663,122.775 290.172,124.119 285.57,123.419 289.532,125.875      289.041,127.218 282.409,126.253 282.84,125.073 287.842,125.949 283.496,123.275 283.889,122.202 288.94,122.939      284.559,120.36    "/>
			<path id="Fill-249" fill="#FFFFFF" d="M287.879,114.357l1.93,0.703l0.146-0.4c0.145-0.393,0.188-0.545,0.26-0.766     c0.084-0.258,0.342-1.102-0.558-1.432c-0.131-0.046-0.588-0.204-1.008,0.188c-0.212,0.199-0.328,0.494-0.576,1.174     L287.879,114.357z M286.467,115.136l0.717-1.964c0.307-0.817,0.507-1.367,1.143-1.749c0.454-0.27,1.053-0.388,1.768-0.127     c1.178,0.43,1.272,1.443,1.25,1.831l3.006-0.456l-0.481,1.318l-2.731,0.388l-0.377,1.03l2.287,0.834l-0.416,1.144     L286.467,115.136z"/>
			<path id="Fill-251" fill="#FFFFFF" d="M290.811,108.816l4.365,1.594l-0.38,1.039l-4.365-1.594L290.811,108.816z M289.074,108.183     l1.056,0.385l-0.38,1.039l-1.055-0.386L289.074,108.183z"/>
			<polygon id="Fill-253" fill="#FFFFFF" points="292.671,103.718 296.514,106.742 296.104,107.869 291.223,107.69 291.616,106.608      294.952,106.794 292.273,104.808    "/>
			<path id="Fill-255" fill="#FFFFFF" d="M295.761,100.292c-0.715-0.151-1.104,0.182-1.272,0.645     c-0.205,0.559-0.021,1.061,0.527,1.398L295.761,100.292z M297.957,99.75c0.529,0.807,0.658,1.646,0.332,2.535     c-0.417,1.143-1.544,1.979-3.149,1.393c-1.467-0.535-1.952-1.78-1.503-3.012c0.422-1.152,1.285-1.381,1.448-1.42     c0.637-0.174,1.426,0.026,1.864,0.176l-1.178,3.229c0.733,0.13,1.282-0.155,1.534-0.844c0.263-0.716-0.053-1.157-0.188-1.355     L297.957,99.75z"/>
			<path id="Fill-257" fill="#FFFFFF" d="M295.39,96.269l0.62,0.227c-0.18-0.214-0.589-0.691-0.206-1.658l1.074,0.393     c-0.075,0.229-0.21,0.625-0.084,1.037c0.18,0.569,0.621,0.74,1.347,1.006l1.614,0.588l-0.369,1.015l-4.364-1.594L295.39,96.269z"/>
			<path id="Fill-259" fill="#FFFFFF" d="M297,89.335l2.141,0.781l0.302-0.83c0.09-0.244,0.166-0.453,0.187-0.674     c0.086-0.779-0.554-1.062-0.771-1.141c-0.455-0.165-0.763-0.051-0.898,0.018c-0.349,0.2-0.504,0.598-0.642,0.973L297,89.335z      M295.59,90.136l0.76-2.076c0.123-0.34,0.252-0.699,0.48-1.021c0.387-0.543,1.235-1.19,2.482-0.736     c0.822,0.301,1.563,1.007,1.406,2.195c-0.045,0.369-0.162,0.692-0.3,1.067l-0.327,0.899l2.086,0.762l-0.424,1.16L295.59,90.136z"/>
			<path id="Fill-261" fill="#FFFFFF" d="M302.609,83.291c0.029,0.248,0.021,0.512-0.072,1.012     c-0.084,0.394-0.179,0.923,0.284,1.093c0.341,0.123,0.619-0.101,0.772-0.521c0.195-0.53,0.087-0.996-0.133-1.205     c-0.11-0.108-0.24-0.156-0.371-0.205L302.609,83.291z M300.717,85.655c-0.211-0.096-0.389-0.18-0.59-0.413     c-0.607-0.695-0.229-1.734-0.125-2.013c0.151-0.42,0.39-0.907,0.756-1.209c0.503-0.399,0.918-0.258,1.388-0.086l2.313,0.843     c0.332,0.121,0.445,0.163,0.776,0.067l-0.452,1.239c-0.107-0.029-0.289-0.076-0.351-0.099c0.11,0.298,0.194,0.853-0.026,1.454     c-0.359,0.986-1.188,1.357-1.938,1.083c-0.219-0.079-0.399-0.206-0.543-0.356c-0.512-0.543-0.408-1.268-0.334-1.713     c0.146-0.967,0.154-1.043,0.171-1.473c-0.218-0.079-0.671-0.225-0.935,0.5c-0.158,0.438-0.104,0.725-0.002,0.879     c0.098,0.165,0.223,0.2,0.346,0.245L300.717,85.655z"/>
			<path id="Fill-263" fill="#FFFFFF" d="M301.737,78.875l0.62,0.228c-0.18-0.215-0.589-0.69-0.206-1.659l1.074,0.393     c-0.074,0.229-0.209,0.627-0.083,1.037c0.18,0.57,0.62,0.741,1.346,1.006l1.614,0.59l-0.369,1.012l-4.364-1.592L301.737,78.875z"/>
			<polygon id="Fill-265" fill="#FFFFFF" points="301.237,74.666 304.703,75.93 303.656,73.619 304.144,72.283 305.203,74.559      308.569,73.71 308.104,74.984 305.668,75.589 306.047,76.419 307.399,76.914 307.021,77.953 300.857,75.703    "/>
			<polygon id="Fill-267" fill="#FFFFFF" points="306.281,66.425 306.68,65.334 310.567,68.236 310.188,69.275 307.117,69.044      309.596,70.899 309.221,71.927 304.393,71.601 304.791,70.51 308.053,70.84 305.364,68.939 305.705,68.005 308.984,68.291    "/>
			<path id="Fill-269" fill="#FFFFFF" d="M310.22,62.438c0.029,0.248,0.021,0.512-0.073,1.012c-0.084,0.394-0.179,0.925,0.284,1.092     c0.341,0.125,0.62-0.099,0.772-0.518c0.195-0.532,0.088-0.997-0.133-1.207c-0.109-0.109-0.239-0.155-0.371-0.204L310.22,62.438z      M308.327,64.803c-0.212-0.096-0.388-0.18-0.591-0.413c-0.606-0.696-0.228-1.734-0.125-2.013c0.152-0.42,0.39-0.907,0.756-1.209     c0.504-0.4,0.916-0.258,1.388-0.086l2.313,0.843c0.332,0.121,0.445,0.163,0.777,0.067l-0.451,1.24     c-0.108-0.03-0.291-0.077-0.352-0.099c0.109,0.297,0.193,0.852-0.025,1.454c-0.361,0.987-1.188,1.358-1.938,1.083     c-0.218-0.079-0.4-0.205-0.543-0.356c-0.513-0.543-0.408-1.268-0.334-1.714c0.145-0.966,0.153-1.042,0.171-1.471     c-0.219-0.08-0.671-0.225-0.934,0.5c-0.16,0.436-0.106,0.723-0.004,0.878c0.098,0.165,0.223,0.201,0.344,0.245L308.327,64.803z"/>
			<path id="Fill-271" fill="#FFFFFF" d="M310.271,55.492l3.402,2.497l0.73,0.544c0.809,0.633,1.014,1.072,0.719,1.885     c-0.125,0.34-0.221,0.493-0.283,0.609l-0.917-0.335c0.053-0.09,0.09-0.165,0.129-0.269c0.028-0.079,0.112-0.306,0.058-0.513     c-0.031-0.151-0.182-0.344-0.269-0.375l-5.028-0.045l0.41-1.126l3.611,0.22l-2.955-2.019L310.271,55.492z"/>
			<path id="Fill-273" fill="#FFFFFF" d="M84.093,128.308c0.281-0.064,1.156-0.268,1.637-1.566c0.08-0.219,0.146-0.451,0.138-0.701     c-0.017-0.511-0.302-0.706-0.511-0.783c-0.393-0.144-0.633,0.074-0.782,0.236c-0.103,0.122-0.119,0.135-0.457,0.645l-0.429,0.685     c-0.241,0.356-0.354,0.532-0.504,0.694c-0.215,0.236-0.871,0.857-1.891,0.48c-1.168-0.43-1.555-1.691-1.021-3.139     c0.49-1.325,1.406-1.799,2.16-2.018l0.359,1.203c-0.383,0.096-1.14,0.271-1.504,1.258c-0.228,0.619-0.148,1.262,0.323,1.437     c0.523,0.192,0.84-0.345,1.15-0.864l0.375-0.584c0.478-0.764,1.25-1.809,2.566-1.322c1.412,0.522,1.496,2.039,1.014,3.346     c-0.125,0.341-0.301,0.711-0.543,1.048c-0.273,0.364-0.838,0.978-1.758,1.163L84.093,128.308z"/>
			<polygon id="Fill-275" fill="#FFFFFF" points="84.29,114.453 89.946,118.074 89.452,119.417 84.852,118.701 88.806,121.169      88.31,122.512 81.683,121.523 82.116,120.346 87.115,121.24 82.778,118.551 83.175,117.478 88.225,118.231 83.853,115.639    "/>
			<polygon id="Fill-277" fill="#FFFFFF" points="87.873,104.738 94.028,107.007 93.614,108.132 88.595,106.164 93.163,109.353      92.78,110.39 87.231,109.859 92.331,111.611 91.915,112.736 85.761,110.466 86.378,108.792 91.39,109.273 87.256,106.412    "/>
			<path id="Fill-279" fill="#FFFFFF" d="M91.825,102.052c-0.242,0.654,0.107,1.316,0.91,1.613c0.899,0.332,1.598-0.035,1.829-0.662     c0.281-0.76-0.241-1.387-0.975-1.628C92.859,101.126,92.095,101.321,91.825,102.052 M95.523,103.358     c-0.501,1.36-1.83,1.899-3.164,1.407c-1.334-0.491-1.952-1.771-1.473-3.069c0.447-1.211,1.675-1.937,3.127-1.412     C95.373,100.786,96.009,102.041,95.523,103.358"/>
			<path id="Fill-281" fill="#FFFFFF" d="M93.86,96.531c-0.24,0.654,0.109,1.318,0.912,1.614c0.897,0.331,1.597-0.034,1.828-0.661     c0.28-0.76-0.242-1.388-0.974-1.629C94.896,95.606,94.131,95.799,93.86,96.531 M97.56,97.837c-0.502,1.359-1.83,1.9-3.164,1.408     s-1.952-1.771-1.472-3.069c0.447-1.212,1.675-1.938,3.125-1.413C97.41,95.265,98.046,96.52,97.56,97.837"/>
			<path id="Fill-283" fill="#FFFFFF" d="M96.581,90.472c-0.293,0.069-0.555,0.27-0.684,0.619c-0.259,0.705,0.25,1.279,0.94,1.534     c0.078,0.029,1.389,0.503,1.765-0.517c0.2-0.54-0.021-1.178-0.966-1.516C97.354,90.5,96.939,90.386,96.581,90.472L96.581,90.472z      M94.02,88.072l6.155,2.27l-0.383,1.037l-0.418-0.154c0.273,0.467,0.27,0.961,0.103,1.414c-0.382,1.039-1.491,1.649-2.929,1.119     c-1.299-0.479-2.137-1.619-1.676-2.867c0.157-0.427,0.43-0.791,0.918-0.986l-2.152-0.795L94.02,88.072z"/>
			<path id="Fill-285" fill="#FFFFFF" d="M97.704,83.615l3.393,2.508l0.728,0.548c0.807,0.633,1.012,1.075,0.713,1.886     c-0.125,0.34-0.223,0.493-0.285,0.609l-0.916-0.338c0.054-0.09,0.092-0.166,0.13-0.27c0.028-0.079,0.112-0.306,0.059-0.513     c-0.032-0.151-0.179-0.345-0.266-0.375l-5.029-0.063l0.414-1.125l3.61,0.233l-2.946-2.029L97.704,83.615z"/>
			<path id="Fill-287" fill="#FFFFFF" d="M102.428,77.441l-3.145-0.199l2.517,1.898L102.428,77.441z M103.544,77.504l-0.853,2.312     l1.072,0.801l-0.453,1.229L97.919,77.5l0.483-1.308l6.929,0.17l-0.453,1.229L103.544,77.504z"/>
			<polygon id="Fill-289" fill="#FFFFFF" points="102.606,70.321 106.438,73.359 106.024,74.484 101.144,74.289 101.542,73.208      104.876,73.408 102.206,71.411    "/>
			<path id="Fill-291" fill="#FFFFFF" d="M105.708,66.908c-0.715-0.154-1.105,0.177-1.275,0.639     c-0.205,0.558-0.026,1.06,0.523,1.401L105.708,66.908z M107.907,66.373c0.524,0.806,0.651,1.645,0.322,2.535     c-0.421,1.142-1.55,1.974-3.154,1.383c-1.465-0.541-1.945-1.788-1.492-3.018c0.424-1.15,1.289-1.377,1.453-1.416     c0.637-0.17,1.426,0.031,1.863,0.184l-1.189,3.224c0.733,0.133,1.283-0.15,1.537-0.839c0.264-0.714-0.047-1.157-0.184-1.355     L107.907,66.373z"/>
			<path id="Fill-293" fill="#FFFFFF" d="M104.976,63.902l0.389-1.056l0.513,0.191c-0.058-0.082-0.159-0.237-0.214-0.466     c-0.095-0.333-0.061-0.775,0.064-1.114c0.184-0.498,0.568-0.842,0.945-0.95c0.467-0.134,0.938,0.038,1.504,0.247l2.563,0.946     l-0.383,1.037l-2.223-0.819c-0.324-0.12-0.541-0.2-0.676-0.211c-0.419-0.045-0.722,0.16-0.847,0.5     c-0.125,0.341-0.041,0.728,0.193,0.982c0.26,0.285,0.705,0.448,1.027,0.568l1.893,0.698l-0.389,1.054L104.976,63.902z"/>
			<path id="Fill-295" fill="#FFFFFF" d="M108.403,54.606l4.359,1.608l-0.386,1.046l-0.444-0.164     c0.106,0.247,0.325,0.814,0.028,1.615c-0.264,0.714-0.695,0.943-0.953,1.025c-0.485,0.158-0.893,0.008-1.547-0.234l-2.52-0.929     l0.389-1.055l2.502,0.923c0.174,0.064,0.322,0.119,0.449,0.126c0.426,0.028,0.707-0.225,0.848-0.609     c0.161-0.435,0.025-0.791-0.15-1.015c-0.23-0.263-0.505-0.375-1.114-0.608l-1.848-0.682L108.403,54.606z"/>
			<path id="Fill-297" fill="#FFFFFF" d="M111.681,50.714c-0.715-0.155-1.104,0.177-1.275,0.638     c-0.205,0.558-0.025,1.06,0.523,1.402L111.681,50.714z M113.88,50.177c0.525,0.807,0.651,1.647,0.322,2.536     c-0.419,1.143-1.548,1.974-3.154,1.382c-1.465-0.54-1.945-1.787-1.492-3.017c0.425-1.15,1.29-1.376,1.453-1.414     c0.638-0.172,1.426,0.029,1.864,0.181l-1.19,3.226c0.734,0.132,1.284-0.15,1.538-0.838c0.265-0.715-0.048-1.158-0.183-1.356     L113.88,50.177z"/>
			<path id="Fill-299" fill="#FFFFFF" d="M4.153,92.056c0.281-0.065,1.158-0.268,1.637-1.565c0.08-0.218,0.146-0.452,0.139-0.702     c-0.019-0.512-0.303-0.707-0.512-0.784c-0.393-0.144-0.633,0.074-0.782,0.237c-0.103,0.121-0.119,0.135-0.455,0.645L3.75,90.57     c-0.24,0.357-0.354,0.533-0.504,0.695c-0.215,0.237-0.871,0.857-1.891,0.48c-1.168-0.43-1.555-1.691-1.019-3.139     c0.488-1.325,1.404-1.799,2.158-2.018l0.359,1.202c-0.383,0.099-1.14,0.274-1.504,1.259c-0.228,0.618-0.148,1.264,0.323,1.437     c0.522,0.192,0.839-0.345,1.15-0.862l0.375-0.587c0.478-0.765,1.25-1.806,2.566-1.321c1.412,0.521,1.496,2.037,1.014,3.346     c-0.125,0.341-0.301,0.711-0.545,1.047c-0.272,0.365-0.836,0.979-1.756,1.166L4.153,92.056z"/>
			<polygon id="Fill-301" fill="#FFFFFF" points="4.351,78.201 10.007,81.822 9.511,83.166 4.913,82.449 8.865,84.917 8.371,86.26      1.742,85.271 2.177,84.095 7.175,84.988 2.839,82.298 3.234,81.225 8.285,81.979 3.914,79.387    "/>
			<polygon id="Fill-303" fill="#FFFFFF" points="7.933,68.485 14.089,70.755 13.673,71.88 8.656,69.91 13.224,73.1 12.841,74.138      7.292,73.607 12.39,75.359 11.976,76.484 5.821,74.214 6.439,72.542 11.451,73.021 7.316,70.159    "/>
			<path id="Fill-305" fill="#FFFFFF" d="M13.485,65.707c0.027,0.247,0.018,0.512-0.076,1.011c-0.086,0.394-0.183,0.924,0.28,1.094     c0.34,0.125,0.62-0.098,0.775-0.516c0.195-0.531,0.089-0.997-0.13-1.207c-0.109-0.11-0.239-0.157-0.37-0.205L13.485,65.707z      M11.585,68.065c-0.212-0.097-0.389-0.182-0.59-0.415c-0.606-0.698-0.223-1.734-0.119-2.014c0.154-0.419,0.394-0.906,0.761-1.205     c0.504-0.399,0.917-0.256,1.388-0.082l2.31,0.851c0.332,0.123,0.445,0.164,0.777,0.07l-0.457,1.238     c-0.107-0.031-0.288-0.077-0.35-0.1c0.108,0.299,0.191,0.853-0.031,1.454c-0.363,0.985-1.193,1.353-1.941,1.076     c-0.219-0.08-0.401-0.207-0.541-0.356c-0.514-0.547-0.405-1.27-0.328-1.717c0.146-0.966,0.156-1.042,0.175-1.47     c-0.218-0.081-0.67-0.228-0.936,0.497c-0.161,0.435-0.109,0.722-0.007,0.878c0.097,0.164,0.223,0.202,0.346,0.247L11.585,68.065z     "/>
			<path id="Fill-307" fill="#FFFFFF" d="M14.829,60.071c-0.315-0.028-0.881,0.109-1.104,0.712c-0.22,0.602,0.083,1.258,0.954,1.579     c0.785,0.289,1.51,0.092,1.765-0.598c0.244-0.662-0.168-1.1-0.469-1.361l0.801-0.725c0.818,0.688,0.918,1.707,0.639,2.465     c-0.447,1.211-1.731,1.818-3.109,1.309c-1.334-0.492-1.957-1.811-1.5-3.049c0.404-1.099,1.343-1.387,1.933-1.426L14.829,60.071z"/>
			<path id="Fill-309" fill="#FFFFFF" d="M17.226,55.564c0.027,0.248,0.018,0.512-0.076,1.012c-0.086,0.393-0.182,0.924,0.281,1.093     c0.34,0.125,0.619-0.098,0.774-0.516c0.196-0.53,0.089-0.996-0.129-1.207c-0.11-0.11-0.239-0.157-0.371-0.205L17.226,55.564z      M15.326,57.923c-0.211-0.097-0.389-0.182-0.59-0.415c-0.605-0.699-0.223-1.736-0.119-2.014c0.154-0.419,0.394-0.906,0.761-1.205     c0.504-0.4,0.918-0.257,1.389-0.082l2.309,0.851c0.332,0.122,0.445,0.164,0.777,0.069l-0.457,1.238     c-0.107-0.031-0.287-0.077-0.35-0.1c0.109,0.298,0.192,0.853-0.031,1.454c-0.363,0.986-1.191,1.354-1.941,1.076     c-0.217-0.08-0.4-0.206-0.541-0.357c-0.512-0.545-0.405-1.269-0.328-1.716c0.148-0.966,0.156-1.042,0.175-1.47     c-0.218-0.081-0.669-0.227-0.935,0.498c-0.161,0.434-0.109,0.721-0.008,0.877c0.098,0.165,0.223,0.202,0.346,0.248L15.326,57.923     z"/>
			<path id="Fill-311" fill="#FFFFFF" d="M18.214,49.955c-0.293,0.07-0.555,0.27-0.683,0.619c-0.26,0.706,0.249,1.28,0.939,1.535     c0.078,0.029,1.39,0.503,1.765-0.517c0.2-0.54-0.021-1.176-0.964-1.515C18.987,49.982,18.572,49.869,18.214,49.955L18.214,49.955     z M15.653,47.555l6.155,2.27l-0.383,1.037l-0.418-0.154c0.273,0.467,0.271,0.961,0.103,1.415     c-0.382,1.037-1.49,1.648-2.927,1.118c-1.301-0.479-2.139-1.62-1.678-2.866c0.157-0.428,0.432-0.791,0.918-0.988l-2.152-0.794     L15.653,47.555z"/>
			<path id="Fill-313" fill="#FFFFFF" d="M21.167,44.882c0.027,0.247,0.018,0.511-0.078,1.012c-0.085,0.393-0.182,0.922,0.281,1.092     c0.34,0.126,0.62-0.097,0.774-0.516c0.197-0.531,0.091-0.996-0.129-1.206c-0.108-0.11-0.239-0.157-0.369-0.206L21.167,44.882z      M19.266,47.24c-0.212-0.097-0.389-0.182-0.591-0.415c-0.604-0.698-0.221-1.735-0.118-2.014c0.154-0.419,0.394-0.906,0.761-1.205     c0.505-0.399,0.917-0.257,1.388-0.083l2.311,0.852c0.332,0.123,0.445,0.164,0.776,0.068l-0.456,1.239     c-0.108-0.03-0.289-0.076-0.35-0.098c0.108,0.296,0.19,0.851-0.032,1.453c-0.363,0.986-1.192,1.353-1.94,1.076     c-0.219-0.08-0.401-0.206-0.543-0.357c-0.512-0.546-0.404-1.269-0.328-1.715c0.148-0.968,0.158-1.043,0.177-1.471     c-0.218-0.081-0.67-0.227-0.937,0.496c-0.16,0.435-0.108,0.723-0.006,0.878c0.096,0.165,0.221,0.202,0.344,0.248L19.266,47.24z"/>
			<path id="Fill-315" fill="#FFFFFF" d="M19.937,41.475l0.383-1.038l0.488,0.18c-0.309-0.509-0.264-1.196-0.111-1.606     c0.15-0.409,0.498-0.866,1.118-0.964c-0.18-0.264-0.441-0.875-0.157-1.642c0.16-0.437,0.437-0.81,0.869-0.988     c0.512-0.207,0.971-0.027,1.426,0.14l2.745,1.013l-0.382,1.037L23.91,36.72c-0.41-0.152-1.077-0.467-1.369,0.326     c-0.122,0.332-0.04,0.67,0.136,0.894c0.248,0.319,0.588,0.474,0.963,0.612l2.049,0.755l-0.383,1.038l-2.433-0.897     c-0.313-0.116-0.426-0.157-0.571-0.171c-0.316-0.027-0.627,0.115-0.761,0.482c-0.116,0.313-0.045,0.686,0.21,0.989     c0.272,0.308,0.678,0.467,1.106,0.625l1.822,0.672l-0.383,1.037L19.937,41.475z"/>
			<path id="Fill-317" fill="#FFFFFF" d="M27.239,28.308l-3.146-0.199l2.519,1.899L27.239,28.308z M28.354,28.373l-0.851,2.31     l1.07,0.801l-0.453,1.229l-5.391-4.344l0.483-1.309l6.929,0.17l-0.453,1.229L28.354,28.373z"/>
			<polygon id="Fill-319" fill="#FFFFFF" points="27.418,21.188 31.25,24.227 30.835,25.351 25.954,25.155 26.354,24.074      29.689,24.273 27.017,22.278    "/>
			<path id="Fill-321" fill="#FFFFFF" d="M30.52,17.775c-0.715-0.155-1.105,0.176-1.274,0.639c-0.207,0.557-0.026,1.059,0.521,1.401     L30.52,17.775z M32.718,17.238c0.524,0.808,0.653,1.647,0.324,2.536c-0.421,1.143-1.55,1.974-3.154,1.382     c-1.467-0.54-1.947-1.787-1.494-3.017c0.424-1.151,1.291-1.377,1.453-1.415c0.639-0.171,1.426,0.031,1.863,0.182l-1.189,3.226     c0.734,0.132,1.284-0.15,1.538-0.838c0.264-0.716-0.048-1.158-0.183-1.356L32.718,17.238z"/>
			<path id="Fill-323" fill="#FFFFFF" d="M29.786,14.769l0.389-1.055l0.515,0.191c-0.06-0.081-0.161-0.238-0.215-0.466     c-0.095-0.332-0.062-0.774,0.064-1.115c0.182-0.497,0.568-0.841,0.944-0.948c0.467-0.137,0.938,0.037,1.504,0.246l2.563,0.945     l-0.383,1.038l-2.223-0.82c-0.322-0.118-0.539-0.2-0.676-0.209c-0.418-0.045-0.722,0.159-0.847,0.499     c-0.125,0.34-0.039,0.727,0.193,0.982c0.262,0.284,0.706,0.448,1.028,0.569l1.892,0.697l-0.389,1.054L29.786,14.769z"/>
			<path id="Fill-325" fill="#FFFFFF" d="M33.214,5.474l4.359,1.608l-0.385,1.046l-0.445-0.164c0.108,0.246,0.325,0.813,0.028,1.614     c-0.264,0.715-0.694,0.943-0.952,1.026c-0.484,0.158-0.894,0.007-1.548-0.235l-2.52-0.928l0.389-1.056l2.504,0.923     c0.174,0.065,0.322,0.119,0.447,0.127c0.426,0.027,0.707-0.225,0.849-0.609c0.161-0.436,0.026-0.792-0.15-1.016     c-0.23-0.263-0.506-0.374-1.112-0.607l-1.85-0.683L33.214,5.474z"/>
			<path id="Fill-327" fill="#FFFFFF" d="M36.493,1.58c-0.715-0.155-1.105,0.177-1.275,0.639c-0.205,0.557-0.026,1.06,0.522,1.401     L36.493,1.58z M38.69,1.044c0.526,0.807,0.653,1.646,0.324,2.536c-0.421,1.142-1.55,1.974-3.154,1.382     c-1.467-0.541-1.947-1.787-1.494-3.018c0.426-1.15,1.291-1.376,1.455-1.414c0.637-0.172,1.425,0.029,1.863,0.182l-1.19,3.225     c0.734,0.132,1.284-0.15,1.538-0.838c0.264-0.715-0.047-1.158-0.183-1.356L38.69,1.044z"/>
			<path id="Fill-329" fill="#FFFFFF" d="M42.256,183.595c0.064,0.28,0.265,1.158,1.563,1.639c0.219,0.08,0.451,0.146,0.702,0.139     c0.511-0.018,0.706-0.302,0.783-0.511c0.145-0.394-0.073-0.632-0.237-0.78c-0.119-0.105-0.132-0.121-0.642-0.457l-0.683-0.431     c-0.356-0.242-0.532-0.356-0.695-0.505c-0.237-0.217-0.857-0.871-0.48-1.893c0.432-1.168,1.694-1.553,3.14-1.018     c1.325,0.49,1.798,1.408,2.015,2.162l-1.202,0.357c-0.097-0.383-0.271-1.142-1.257-1.505c-0.619-0.229-1.262-0.149-1.436,0.321     c-0.193,0.523,0.343,0.84,0.862,1.15l0.586,0.375c0.763,0.48,1.805,1.252,1.318,2.567c-0.522,1.413-2.039,1.496-3.347,1.013     c-0.34-0.125-0.71-0.304-1.047-0.545c-0.364-0.273-0.977-0.838-1.163-1.759L42.256,183.595z"/>
			<polygon id="Fill-331" fill="#FFFFFF" points="56.11,183.804 52.484,189.458 51.143,188.961 51.861,184.364 49.39,188.314      48.047,187.818 49.042,181.191 50.218,181.625 49.321,186.625 52.015,182.291 53.086,182.687 52.329,187.737 54.925,183.367         "/>
			<path id="Fill-333" fill="#FFFFFF" d="M61.626,190.332l0.202-3.146l-1.901,2.517L61.626,190.332z M61.561,191.447l-2.311-0.854     l-0.801,1.07l-1.228-0.455l4.348-5.386l1.309,0.484l-0.176,6.929l-1.228-0.453L61.561,191.447z"/>
			<path id="Fill-335" fill="#FFFFFF" d="M67.141,190.855c-0.471-0.175-1.161-0.021-1.506,0.909     c-0.099,0.271-0.134,0.468-0.137,0.585c-0.096,0.904,0.611,1.165,0.697,1.198c0.767,0.285,1.306-0.397,1.537-0.967     C68.077,191.726,67.708,191.066,67.141,190.855L67.141,190.855z M67.097,187.867l-0.8,2.162c0.468-0.193,0.968-0.207,1.449-0.028     c0.984,0.362,1.573,1.61,1.06,2.998c-0.525,1.42-1.803,1.978-2.839,1.594c-0.575-0.213-0.849-0.68-0.978-1.024l-0.167,0.453     l-1.038-0.385l2.276-6.152L67.097,187.867z"/>
			<path id="Fill-337" fill="#FFFFFF" d="M73.234,194.021c0.155-0.715-0.177-1.104-0.638-1.276c-0.558-0.206-1.06-0.026-1.402,0.522     L73.234,194.021z M73.769,196.22c-0.808,0.523-1.647,0.648-2.536,0.321c-1.143-0.424-1.972-1.554-1.378-3.157     c0.541-1.464,1.787-1.943,3.016-1.488c1.152,0.424,1.376,1.291,1.415,1.453c0.171,0.639-0.031,1.426-0.185,1.863l-3.224-1.191     c-0.133,0.732,0.149,1.283,0.837,1.537c0.715,0.266,1.159-0.048,1.356-0.183L73.769,196.22z"/>
			<path id="Fill-339" fill="#FFFFFF" d="M77.262,193.667l-0.229,0.619c0.214-0.18,0.692-0.587,1.658-0.199l-0.397,1.071     c-0.229-0.075-0.624-0.212-1.037-0.087c-0.57,0.176-0.743,0.617-1.011,1.34l-0.595,1.612l-1.012-0.374l1.611-4.357     L77.262,193.667z"/>
			<path id="Fill-341" fill="#FFFFFF" d="M79.763,194.591l1.056,0.391l-0.191,0.514c0.081-0.058,0.237-0.16,0.466-0.214     c0.331-0.095,0.774-0.06,1.114,0.065c0.498,0.185,0.84,0.568,0.948,0.945c0.136,0.467-0.038,0.938-0.248,1.504l-0.947,2.562     l-1.038-0.385l0.821-2.221c0.119-0.324,0.201-0.541,0.211-0.677c0.046-0.419-0.159-0.722-0.499-0.847     c-0.339-0.126-0.728-0.042-0.982,0.189c-0.283,0.262-0.448,0.707-0.568,1.028l-0.699,1.892l-1.055-0.39L79.763,194.591z"/>
			<path id="Fill-343" fill="#FFFFFF" d="M87.428,199.269c0.155-0.715-0.177-1.104-0.638-1.275c-0.558-0.206-1.06-0.026-1.402,0.521     L87.428,199.269z M87.962,201.468c-0.808,0.524-1.647,0.649-2.536,0.32c-1.143-0.422-1.972-1.551-1.378-3.155     c0.541-1.465,1.787-1.944,3.016-1.489c1.152,0.426,1.376,1.291,1.415,1.455c0.171,0.637-0.031,1.424-0.185,1.862l-3.224-1.192     c-0.133,0.733,0.149,1.285,0.838,1.539c0.714,0.264,1.158-0.048,1.355-0.183L87.962,201.468z"/>
			<path id="Fill-345" fill="#FFFFFF" d="M91.325,199.72l-0.729,1.971c-0.199,0.539-0.287,0.775,0.209,0.959     c0.157,0.057,0.292,0.098,0.456,0.107l-0.326,0.881c-0.333-0.063-0.547-0.123-0.784-0.211c-0.217-0.08-0.949-0.352-0.953-0.957     c-0.005-0.199,0.098-0.479,0.26-0.914l0.821-2.223l-0.637-0.236l0.278-0.75l0.636,0.236l0.571-1.543l1.046,0.387l-0.571,1.543     l0.932,0.346l-0.277,0.75L91.325,199.72z"/>
			<path id="Fill-347" fill="#FFFFFF" d="M95.3,198.296l-0.828,2.24c0.453-0.209,0.996-0.285,1.598-0.062     c0.541,0.199,0.881,0.563,1.019,0.912c0.217,0.515,0.061,0.963-0.123,1.461l-0.996,2.691l-1.028-0.38l0.885-2.397     c0.128-0.398,0.163-0.494,0.16-0.645c-0.003-0.1-0.006-0.547-0.582-0.759c-0.669-0.248-1.183,0.176-1.346,0.403     c-0.087,0.127-0.113,0.195-0.293,0.684l-0.741,2.005l-1.046-0.386l2.275-6.154L95.3,198.296z"/>
			<path id="Fill-349" fill="#FFFFFF" d="M102.665,203.062l-2.512,3.391l-0.549,0.729c-0.633,0.807-1.075,1.01-1.885,0.709     c-0.34-0.125-0.493-0.222-0.608-0.285l0.338-0.914c0.089,0.053,0.165,0.091,0.269,0.129c0.08,0.029,0.304,0.113,0.512,0.061     c0.152-0.033,0.345-0.179,0.377-0.266l0.066-5.03L99.798,202l-0.235,3.608l2.03-2.942L102.665,203.062z"/>
			<path id="Fill-351" fill="#FFFFFF" d="M106.212,207.246c0.064,0.282,0.266,1.158,1.564,1.639c0.217,0.082,0.451,0.146,0.701,0.14     c0.512-0.017,0.706-0.302,0.784-0.511c0.144-0.393-0.073-0.633-0.236-0.781c-0.12-0.104-0.134-0.12-0.644-0.456l-0.683-0.431     c-0.356-0.241-0.533-0.356-0.695-0.506c-0.237-0.215-0.857-0.87-0.481-1.892c0.432-1.168,1.695-1.553,3.141-1.017     c1.326,0.49,1.799,1.408,2.016,2.162l-1.203,0.357c-0.096-0.384-0.272-1.142-1.256-1.506c-0.619-0.229-1.263-0.15-1.438,0.322     c-0.193,0.521,0.344,0.839,0.864,1.15l0.584,0.375c0.763,0.479,1.806,1.252,1.32,2.567c-0.523,1.412-2.04,1.495-3.348,1.013     c-0.34-0.127-0.711-0.304-1.046-0.547c-0.365-0.272-0.979-0.837-1.163-1.758L106.212,207.246z"/>
			<path id="Fill-353" fill="#FFFFFF" d="M113.67,207.984l-0.729,1.97c-0.2,0.54-0.286,0.774,0.21,0.959     c0.157,0.057,0.291,0.098,0.455,0.108l-0.325,0.881c-0.334-0.064-0.55-0.123-0.784-0.211c-0.219-0.08-0.949-0.352-0.954-0.957     c-0.005-0.199,0.098-0.479,0.259-0.914l0.822-2.224l-0.637-0.235l0.278-0.75l0.636,0.235l0.571-1.543l1.046,0.388l-0.571,1.543     l0.933,0.345l-0.277,0.75L113.67,207.984z"/>
			<path id="Fill-355" fill="#FFFFFF" d="M116.964,208.349l-0.229,0.619c0.214-0.178,0.692-0.586,1.658-0.199l-0.397,1.072     c-0.228-0.074-0.624-0.212-1.037-0.087c-0.571,0.175-0.743,0.616-1.011,1.341l-0.595,1.611l-1.012-0.373l1.611-4.357     L116.964,208.349z"/>
			<path id="Fill-357" fill="#FFFFFF" d="M121.622,211.916c0.156-0.715-0.176-1.106-0.637-1.276     c-0.558-0.206-1.062-0.026-1.402,0.521L121.622,211.916z M122.156,214.114c-0.807,0.524-1.646,0.649-2.536,0.32     c-1.142-0.421-1.972-1.552-1.379-3.156c0.542-1.463,1.789-1.942,3.018-1.489c1.15,0.426,1.375,1.291,1.414,1.455     c0.171,0.637-0.031,1.424-0.184,1.863l-3.224-1.191c-0.133,0.732,0.148,1.282,0.836,1.537c0.716,0.266,1.159-0.048,1.356-0.183     L122.156,214.114z"/>
			<path id="Fill-359" fill="#FFFFFF" d="M126.958,213.888c0.154-0.716-0.176-1.105-0.639-1.276     c-0.556-0.206-1.06-0.026-1.401,0.522L126.958,213.888z M127.491,216.086c-0.807,0.524-1.646,0.65-2.535,0.321     c-1.143-0.422-1.973-1.551-1.379-3.156c0.541-1.464,1.789-1.943,3.018-1.488c1.15,0.424,1.375,1.291,1.414,1.453     c0.171,0.639-0.033,1.426-0.184,1.863l-3.226-1.191c-0.132,0.732,0.15,1.283,0.838,1.539c0.715,0.264,1.158-0.049,1.356-0.185     L127.491,216.086z"/>
			<path id="Fill-361" fill="#FFFFFF" d="M130.854,214.339l-0.729,1.969c-0.199,0.541-0.287,0.775,0.211,0.959     c0.157,0.058,0.29,0.098,0.454,0.109l-0.325,0.881c-0.333-0.064-0.548-0.125-0.783-0.211c-0.219-0.08-0.951-0.352-0.954-0.957     c-0.006-0.201,0.097-0.479,0.259-0.916l0.821-2.222l-0.637-0.235l0.278-0.75l0.636,0.235l0.571-1.543l1.046,0.388l-0.571,1.543     l0.933,0.344l-0.277,0.75L130.854,214.339z"/>
		</g>
	</g>
</g>
<path fill="#BC1601" d="M219.796,192.078l-9.95-9.955c-2.284-2.286-2.284-6.005,0-8.292c1.107-1.108,2.582-1.718,4.147-1.718  c1.566,0,3.039,0.609,4.147,1.717l1.67,1.669l1.671-1.669c1.106-1.107,2.579-1.717,4.146-1.717s3.039,0.61,4.146,1.717  c2.285,2.286,2.287,6.005,0,8.293L219.796,192.078z M219.795,188.018l7.949-7.923c1.165-1.167,1.165-3.065-0.001-4.232  c-1.13-1.131-3.103-1.131-4.232,0l-3.701,3.7l-3.7-3.7c-1.129-1.13-3.102-1.13-4.233,0c-1.165,1.167-1.165,3.065,0.001,4.232  L219.795,188.018z"/>
</svg>