<?xml version="1.0" encoding="UTF-8"?>
<!-- Generator: Adobe Illustrator 24.0.0, SVG Export Plug-In . SVG Version: 6.00 Build 0)  -->
<svg version="1.1" id="Layer_1" xmlns="http://www.w3.org/2000/svg" xmlns:xlink="http://www.w3.org/1999/xlink" x="0px" y="0px" viewBox="0 0 99.4 24" style="enable-background:new 0 0 99.4 24;" xml:space="preserve">
<style type="text/css">
	.st0{fill:#EE4F23;}
</style>
<g id="m7TTJQ_1_">
	<g>
		<path class="st0" d="M24,12c0,2.6,0,5.2,0,7.8c0,2.5-1.7,4.2-4.2,4.2c-5.2,0-10.5,0-15.7,0C1.7,24,0,22.3,0,19.9    C0,14.6,0,9.4,0,4.1C0,1.8,1.7,0,4.1,0c5.3,0,10.5,0,15.8,0C22.3,0,24,1.7,24,4.1c0,0,0,0.1,0,0.1C24,6.8,24,9.4,24,12z M4.4,12    c0,2,0,4.1,0,6.1c0,1.1,0.5,1.5,1.5,1.5c4.1,0,8.1,0,12.2,0c1.1,0,1.5-0.5,1.5-1.5c0-4.1,0-8.1,0-12.2c0-1.1-0.5-1.5-1.6-1.5    c-4.1,0-8.1,0-12.2,0c-1.1,0-1.6,0.4-1.6,1.5C4.4,7.9,4.4,10,4.4,12z"/>
		<path class="st0" d="M52.3,10.3c0-0.5,0-0.8,0-1.2c0-0.3,0.1-0.4,0.4-0.4c1.3,0,1.3,0,1.3,1.2c0,4.5,0,9,0,13.5    c0,0.6,0,0.6-0.6,0.6c-1.1,0-1.1,0-1.1-1.1c0-1.6,0-3.2,0-4.9c-1.3,1.4-2.8,2-4.6,1.8c-1.8-0.2-3.3-1-4.3-2.4    c-1.7-2.4-1.3-5.7,1-7.6C46.2,8.2,49.9,7.6,52.3,10.3z M44,14.2c0,2.4,1.8,4.2,4.2,4.2c2.3,0,4.1-1.8,4.1-4.2    c0-2.3-1.8-4.2-4.1-4.2C45.8,10,44,11.7,44,14.2z"/>
		<path class="st0" d="M35.2,4.1c2.5,0,4.3,1.3,4.9,3.2c0.3,1,0.2,1.1-0.8,1.1c-0.7,0-0.6,0-0.8-0.6c-0.1-0.4-0.3-0.8-0.5-1    c-1.1-1.3-3.4-1.3-4.5,0c-1.1,1.3-0.7,3,0.8,3.6c0.8,0.3,1.8,0.5,2.6,0.8c0.7,0.2,1.3,0.5,1.9,0.8c2.1,1.2,2.7,3.7,1.4,5.7    c-1.1,1.7-3.3,2.6-5.5,2.2c-2.1-0.4-3.4-1.6-4-3.7c0-0.1,0-0.1,0-0.2c-0.1-0.6,0-0.6,0.6-0.6c0,0,0.1,0,0.1,0c0.9,0,0.9,0,1.2,0.8    c0.7,2,3.4,2.8,5.3,1.6c0.4-0.3,0.8-0.6,1-1c0.8-1.1,0.5-2.5-0.7-3.1c-0.9-0.5-1.8-0.7-2.8-1.1c-0.6-0.2-1.3-0.4-1.9-0.6    c-2.8-1.1-2.7-4.3-1.4-5.9C32.8,4.7,34.1,4.1,35.2,4.1z"/>
		<path class="st0" d="M89.6,14.9c0.4,1.7,1.3,2.9,3,3.4c1.7,0.5,3.2,0.1,4.4-1.2c0.2-0.2,0.4-0.3,0.7-0.3c0.4,0,0.8,0,1.4,0    c-0.2,0.3-0.2,0.5-0.3,0.6c-1.4,2.3-4.2,3.2-6.8,2.3c-2.5-0.9-4.1-3.4-3.8-6.1c0.3-2.5,2.4-4.6,5-5c3.4-0.4,6.6,2.5,6.4,5.9    c0,0.4-0.2,0.4-0.5,0.4c-2.9,0-5.8,0-8.7,0C90,14.9,89.8,14.9,89.6,14.9z M89.6,13.3c2.7,0,5.3,0,8,0c-0.4-1.9-2.1-3.3-4-3.3    C91.7,10,90,11.4,89.6,13.3z"/>
		<path class="st0" d="M77.7,10.3c0-0.5,0-0.8,0-1.2c0-0.3,0.1-0.4,0.4-0.4c1.3,0,1.3,0,1.3,1.2c0,3.1,0,6.1,0,9.2    c0,0.4-0.1,0.5-0.5,0.5c-1.1,0-1.1,0-1.1-1.2c0-0.1,0-0.2,0-0.4c-2.5,2.8-6.6,2-8.5-0.1c-2-2.3-1.9-5.8,0.4-8    C71.5,8.1,75.4,7.7,77.7,10.3z M69.4,14.2c0,2.4,1.8,4.2,4.2,4.2c2.3,0,4.1-1.8,4.1-4.2c0-2.3-1.8-4.2-4.1-4.2    C71.2,10,69.4,11.8,69.4,14.2z"/>
		<path class="st0" d="M64.3,18.5c-1.7,1.6-3.9,1.8-5.9,0.7c-1.5-0.9-2.1-2.3-2.1-4c-0.1-2.1,0-4.1,0-6.2c0-0.3,0.1-0.4,0.4-0.4    c0.3,0,0.6,0,0.8,0c0.3,0,0.5,0.1,0.5,0.5c0,1.8,0,3.6,0,5.4c0,0.4,0,0.8,0.1,1.2c0.3,1.9,1.5,2.8,3.4,2.6    c1.4-0.2,2.5-1.3,2.7-2.7c0.1-0.7,0.1-1.4,0.1-2.2c0-1.5,0-2.9,0-4.4c0-0.3,0.1-0.4,0.4-0.4c1.3,0,1.3,0,1.3,1.2c0,3,0,6.1,0,9.1    c0,0.6,0,0.6-0.6,0.6C64.3,19.7,64.3,19.7,64.3,18.5z"/>
		<path class="st0" d="M83.7,10.3c1.1-1.2,2.3-1.8,3.8-1.9C87.9,8.4,88,8.6,88,9c0,0.9,0,0.9-0.9,1.1c-2,0.4-3.4,2-3.4,4.1    c0,1.7,0,3.3,0,5c0,0.4-0.1,0.5-0.5,0.5c-1.2,0-1.2,0-1.2-1.2c0-3.1,0-6.2,0-9.3c0-0.4,0.1-0.5,0.5-0.5c1.1,0,1.1,0,1.1,1.1    C83.7,10,83.7,10.1,83.7,10.3z"/>
		<path class="st0" d="M12,15.3c-0.8,0-1.6,0-2.4,0c-0.7,0-0.9-0.3-0.9-0.9c0-1.6,0-3.2,0-4.8C8.7,9,9,8.7,9.6,8.7    c1.6,0,3.2,0,4.8,0c0.6,0,0.9,0.2,0.9,0.9c0,1.6,0,3.2,0,4.8c0,0.6-0.3,0.8-0.8,0.8C13.6,15.3,12.8,15.3,12,15.3    C12,15.3,12,15.3,12,15.3z"/>
	</g>
</g>
</svg>