<?xml version="1.0" encoding="UTF-8"?>
<!-- Generator: Adobe Illustrator 24.0.0, SVG Export Plug-In . SVG Version: 6.00 Build 0)  -->
<svg version="1.1" id="Layer_1" xmlns="http://www.w3.org/2000/svg" xmlns:xlink="http://www.w3.org/1999/xlink" x="0px" y="0px" viewBox="0 0 70.4 17" style="enable-background:new 0 0 70.4 17;" xml:space="preserve">
<style type="text/css">
	.st0{fill:#FFFFFF;}
</style>
<g id="m7TTJQ_1_">
	<g>
		<path class="st0" d="M17,8.5c0,1.9,0,3.7,0,5.6c0,1.7-1.2,2.9-2.9,2.9c-3.7,0-7.4,0-11.1,0C1.2,17,0,15.8,0,14.1    c0-3.7,0-7.4,0-11.1C0,1.2,1.2,0,2.9,0c3.7,0,7.5,0,11.2,0C15.8,0,17,1.2,17,2.9c0,0,0,0.1,0,0.1C17,4.8,17,6.7,17,8.5z M3.1,8.5    c0,1.4,0,2.9,0,4.3c0,0.8,0.3,1.1,1.1,1.1c2.9,0,5.8,0,8.7,0c0.8,0,1.1-0.3,1.1-1.1c0-2.9,0-5.8,0-8.7c0-0.8-0.3-1.1-1.1-1.1    c-2.9,0-5.7,0-8.6,0c-0.8,0-1.1,0.3-1.1,1.1C3.1,5.6,3.1,7.1,3.1,8.5z"/>
		<path class="st0" d="M37,7.3c0-0.3,0-0.6,0-0.8c0-0.2,0.1-0.3,0.3-0.3c0.9,0,0.9,0,0.9,0.9c0,3.2,0,6.4,0,9.6c0,0.4,0,0.4-0.4,0.4    C37,17,37,17,37,16.2c0-1.1,0-2.2,0-3.4c-0.9,1-2,1.4-3.3,1.3c-1.3-0.1-2.3-0.7-3-1.7c-1.2-1.7-0.9-4,0.7-5.4    C32.7,5.8,35.4,5.4,37,7.3z M31.2,10.1c0,1.7,1.3,3,3,3c1.6,0,2.9-1.3,2.9-3c0-1.6-1.3-3-2.9-3C32.4,7.1,31.2,8.3,31.2,10.1z"/>
		<path class="st0" d="M24.9,2.9c1.8,0,3.1,1,3.4,2.3C28.6,5.9,28.5,6,27.8,6c-0.5,0-0.5,0-0.6-0.4C27.1,5.3,27,5,26.8,4.8    c-0.8-0.9-2.4-0.9-3.2,0c-0.8,0.9-0.5,2.1,0.6,2.5c0.6,0.2,1.2,0.3,1.9,0.5C26.5,8,27,8.2,27.4,8.4c1.5,0.8,1.9,2.6,1,4    c-0.8,1.2-2.3,1.9-3.9,1.6c-1.5-0.3-2.4-1.1-2.8-2.6c0-0.1,0-0.1,0-0.2c-0.1-0.4,0-0.4,0.4-0.5c0,0,0,0,0.1,0c0.6,0,0.6,0,0.8,0.6    c0.5,1.4,2.4,2,3.7,1.1c0.3-0.2,0.5-0.4,0.7-0.7c0.5-0.8,0.4-1.8-0.5-2.2c-0.6-0.3-1.3-0.5-2-0.8c-0.4-0.2-0.9-0.3-1.4-0.4    c-2-0.8-1.9-3.1-1-4.2C23.3,3.3,24.1,2.9,24.9,2.9z"/>
		<path class="st0" d="M63.4,10.5c0.3,1.2,0.9,2.1,2.1,2.4c1.2,0.3,2.2,0.1,3.1-0.9c0.1-0.1,0.3-0.2,0.5-0.2c0.3,0,0.6,0,1,0    c-0.1,0.2-0.2,0.3-0.2,0.4c-1,1.6-3,2.3-4.8,1.6c-1.8-0.6-2.9-2.4-2.7-4.3C62.5,7.7,64,6.2,65.9,6c2.4-0.3,4.7,1.8,4.5,4.2    c0,0.3-0.2,0.3-0.4,0.3c-2.1,0-4.1,0-6.2,0C63.7,10.5,63.6,10.5,63.4,10.5z M63.5,9.4c1.9,0,3.8,0,5.7,0c-0.3-1.4-1.5-2.4-2.9-2.3    C64.9,7.1,63.7,8.1,63.5,9.4z"/>
		<path class="st0" d="M55,7.3c0-0.3,0-0.6,0-0.8c0-0.2,0.1-0.3,0.3-0.3c0.9,0,0.9,0,0.9,0.9c0,2.2,0,4.4,0,6.5    c0,0.3-0.1,0.4-0.3,0.4c-0.8,0-0.8,0-0.8-0.8c0-0.1,0-0.2,0-0.3c-1.8,2-4.7,1.4-6-0.1c-1.4-1.6-1.3-4.1,0.3-5.6    C50.7,5.8,53.4,5.4,55,7.3z M49.2,10.1c0,1.7,1.3,3,3,3c1.6,0,2.9-1.3,2.9-3c0-1.6-1.3-3-2.9-3C50.4,7.1,49.2,8.3,49.2,10.1z"/>
		<path class="st0" d="M45.5,13.1c-1.2,1.1-2.8,1.3-4.2,0.5c-1.1-0.6-1.5-1.6-1.5-2.8c0-1.5,0-2.9,0-4.4c0-0.2,0.1-0.3,0.3-0.2    c0.2,0,0.4,0,0.6,0C41,6.2,41,6.3,41,6.5c0,1.3,0,2.6,0,3.8c0,0.3,0,0.6,0.1,0.9c0.2,1.3,1.1,2,2.4,1.8c1-0.1,1.8-0.9,1.9-1.9    c0.1-0.5,0.1-1,0.1-1.5c0-1,0-2.1,0-3.1c0-0.2,0.1-0.3,0.3-0.3c0.9,0,0.9,0,0.9,0.9c0,2.2,0,4.3,0,6.5c0,0.4,0,0.4-0.4,0.4    C45.6,13.9,45.6,13.9,45.5,13.1z"/>
		<path class="st0" d="M59.3,7.3C60,6.4,60.9,6,62,6c0.3,0,0.4,0.1,0.4,0.4c0,0.6,0,0.6-0.6,0.8c-1.4,0.2-2.4,1.4-2.4,2.9    c0,1.2,0,2.4,0,3.6c0,0.3-0.1,0.3-0.3,0.3c-0.8,0-0.8,0-0.8-0.8c0-2.2,0-4.4,0-6.6c0-0.3,0.1-0.4,0.4-0.4c0.8,0,0.8,0,0.8,0.8    C59.3,7.1,59.3,7.1,59.3,7.3z"/>
		<path class="st0" d="M8.5,10.8c-0.6,0-1.1,0-1.7,0c-0.5,0-0.6-0.2-0.6-0.6c0-1.1,0-2.2,0-3.4c0-0.5,0.2-0.6,0.6-0.6    c1.1,0,2.2,0,3.4,0c0.4,0,0.6,0.2,0.6,0.6c0,1.1,0,2.3,0,3.4c0,0.4-0.2,0.6-0.6,0.6C9.7,10.8,9.1,10.8,8.5,10.8    C8.5,10.8,8.5,10.8,8.5,10.8z"/>
	</g>
</g>
</svg>