<?xml version="1.0" encoding="UTF-8"?>
<!-- Generator: Adobe Illustrator 22.1.0, SVG Export Plug-In . SVG Version: 6.00 Build 0)  -->
<svg version="1.1" id="Layer_1" xmlns="http://www.w3.org/2000/svg" xmlns:xlink="http://www.w3.org/1999/xlink" x="0px" y="0px" viewBox="0 0 264.1 83.59" style="enable-background:new 0 0 264.1 83.59;" xml:space="preserve">
<style type="text/css">
	.st0{fill:#231F20;}
	.st1{fill-rule:evenodd;clip-rule:evenodd;}
	.st2{fill:#BC1601;}
</style>
<g>
	<path class="st0" d="M97.184,71.578h3.979c1.394,0,2.457,0.319,3.188,0.959c0.731,0.639,1.098,1.395,1.098,2.266   c0,0.508-0.098,0.955-0.293,1.344c-0.196,0.389-0.485,0.732-0.868,1.033c-0.384,0.302-0.84,0.541-1.367,0.718   c-0.528,0.177-1.182,0.265-1.965,0.265H98.34v5.429h-1.157V71.578z M98.324,72.615v4.501h2.544c1.178,0,2.015-0.208,2.512-0.626   c0.496-0.416,0.746-0.963,0.746-1.639c0-0.773-0.33-1.361-0.992-1.769c-0.506-0.311-1.319-0.468-2.433-0.468H98.324z"/>
	<path class="st0" d="M114.781,71.578h1.166V83.59h-1.166V71.578z"/>
	<path class="st0" d="M125.62,71.578h7.918v1.156l-7.103,9.691h7.103v1.165h-8.465v-1.165l7.12-9.691h-6.572V71.578z"/>
	<path class="st0" d="M141.934,71.578h7.916v1.156l-7.102,9.691h7.102v1.165h-8.463v-1.165l7.119-9.691h-6.572V71.578z"/>
	<path class="st0" d="M161.204,71.578h1.865l3.852,12.013h-1.173l-1.198-3.724h-4.855l-1.211,3.724h-1.182L161.204,71.578z    M162.135,72.37l-2.062,6.331h4.1L162.135,72.37z"/>
</g>
<g id="h62nOm_21_">
	<g>
		<path class="st1" d="M35.603,44.119c-1.298,3.32-2.53,6.469-3.761,9.617c-0.445,1.14-0.853,2.298-1.359,3.412    c-0.129,0.283-0.575,0.604-0.858,0.588c-0.283-0.016-0.706-0.385-0.79-0.678c-1.808-6.326-3.581-12.662-5.353-18.999    c-0.225-0.8-0.106-0.961,0.718-0.98c0.667-0.016,1.336,0.022,2.003-0.012c0.624-0.032,0.884,0.241,1.035,0.838    c0.925,3.641,1.887,7.271,2.84,10.905c0.019,0.071,0.05,0.14,0.126,0.345c0.19-0.427,0.352-0.748,0.478-1.082    c1.351-3.503,2.699-7.007,4.042-10.514c0.168-0.442,0.324-0.781,0.925-0.796c0.653-0.018,0.801,0.368,0.982,0.833    c1.383,3.577,2.771,7.151,4.162,10.726c0.091,0.236,0.199,0.469,0.382,0.907c0.607-2.36,1.163-4.509,1.71-6.657    c0.396-1.549,0.798-3.095,1.164-4.651c0.145-0.623,0.45-0.907,1.11-0.855c0.583,0.047,1.175,0.006,1.762,0.012    c0.995,0.008,1.143,0.194,0.877,1.139c-0.615,2.207-1.243,4.409-1.863,6.615c-1.126,4-2.247,8.001-3.379,11.999    c-0.126,0.449-0.186,0.939-0.861,0.971c-0.701,0.033-0.83-0.457-1.014-0.924c-1.574-3.988-3.143-7.979-4.715-11.966    C35.882,44.693,35.773,44.484,35.603,44.119z"/>
		<path class="st1" d="M63.168,40.553c0,1.611,0,3.146,0,4.78c1.361,0,2.687,0,4.015,0c0.934,0,1.87,0.012,2.805-0.003    c0.62-0.01,0.956,0.228,0.93,0.896c-0.023,0.586-0.02,1.174-0.001,1.762c0.019,0.654-0.277,0.891-0.925,0.885    c-2.242-0.024-4.485-0.01-6.798-0.01c0,1.689,0,3.35,0,5.109c0.931,0,1.859,0,2.784,0c1.817,0,3.633,0.016,5.45-0.007    c0.648-0.008,0.934,0.249,0.911,0.899c-0.021,0.614-0.006,1.229-0.003,1.844c0.001,0.52-0.228,0.781-0.775,0.781    c-3.794-0.008-7.586-0.011-11.379,0.002c-0.642,0.004-0.841-0.301-0.831-0.888c0.019-0.987,0.004-1.978,0.004-2.966    c0-5.129,0-10.257,0.002-15.386c0-1.134,0.042-1.175,1.167-1.176c3.58-0.002,7.159-0.002,10.738,0.001    c0.964,0.001,1.075,0.097,1.07,1.043c-0.012,2.899,0.289,2.397-2.407,2.429C67.688,40.574,65.45,40.553,63.168,40.553z"/>
		<path class="st1" d="M88.299,48.863c0,1.656,0,3.178,0.002,4.699c0,0.103,0.024,0.205,0.049,0.41c0.644,0,1.275,0,1.904,0    c2.059,0,4.116-0.002,6.172,0.002c0.965,0.002,1.07,0.107,1.079,1.039c0.007,0.562,0,1.123,0.003,1.684    c0.004,0.515-0.211,0.793-0.765,0.792c-3.819-0.007-7.64-0.009-11.459,0c-0.757,0.001-0.759-0.495-0.759-1.034    c0.003-4.3,0.002-8.602,0.002-12.901c0-1.844,0.018-3.688-0.007-5.53c-0.01-0.673,0.215-0.962,0.923-0.957    c3.713,0.021,7.428,0.02,11.141,0c0.646-0.003,0.943,0.233,0.925,0.881c-0.014,0.561-0.019,1.123,0.001,1.683    c0.026,0.682-0.271,0.94-0.96,0.933c-2.429-0.027-4.862-0.011-7.293-0.01c-0.287,0-0.576,0-0.912,0c0,1.604,0,3.137,0,4.78    c0.52,0,1.016,0,1.514,0c1.737,0,3.472,0.02,5.209-0.009c0.763-0.013,1.078,0.29,1.026,1.05c-0.038,0.532-0.022,1.068-0.005,1.603    c0.021,0.644-0.256,0.903-0.911,0.896c-1.978-0.025-3.954-0.01-5.932-0.01C88.959,48.863,88.672,48.863,88.299,48.863z"/>
		<path class="st1" d="M6.593,36.813c2.004-0.015,3.826,0.589,5.491,1.68c0.744,0.486,0.786,0.763,0.309,1.506    c-1.239,1.93-1.239,1.928-3.303,0.911c-1.011-0.499-2.046-0.925-3.216-0.749c-0.909,0.136-1.622,0.581-1.92,1.476    c-0.28,0.842-0.025,1.644,0.653,2.161c0.774,0.59,1.65,1.057,2.51,1.52c1.1,0.592,2.287,1.037,3.336,1.705    c2.127,1.355,3.298,3.285,2.822,5.877c-0.489,2.68-2.326,4.15-4.868,4.678c-2.795,0.578-5.406-0.029-7.727-1.723    c-0.839-0.612-0.844-0.744-0.333-1.631c0.213-0.369,0.425-0.738,0.644-1.103c0.443-0.736,0.654-0.733,1.413-0.356    c1.16,0.576,2.347,1.11,3.559,1.56c0.412,0.152,0.956,0.069,1.408-0.04c1.862-0.45,2.484-2.399,1.137-3.758    c-0.638-0.644-1.5-1.085-2.309-1.534c-1.112-0.62-2.337-1.062-3.396-1.758c-2.356-1.541-3.253-3.906-2.559-6.347    c0.654-2.314,2.786-3.902,5.467-4.071C6.004,36.796,6.3,36.813,6.593,36.813z"/>
		<path class="st1" d="M116.26,40.552c0,0.413,0,0.729,0,1.045c0,4.914,0,9.83-0.003,14.745c0,1.059-0.084,1.141-1.134,1.144    c-0.454,0-0.907,0-1.362,0c-1.305-0.001-1.315-0.01-1.315-1.279c0-4.887,0-9.775,0-14.664c0-0.291,0-0.583,0-0.99    c-1.317,0-2.589,0.002-3.861,0c-1.128-0.003-1.182-0.058-1.186-1.176c-0.001-0.455,0.021-0.91-0.005-1.362    c-0.04-0.687,0.255-0.957,0.946-0.947c1.976,0.024,3.953,0.008,5.929,0.008c1.976,0,3.954-0.002,5.931,0.002    c1.006,0.002,1.077,0.08,1.081,1.11c0.002,0.481-0.021,0.963,0.005,1.442c0.04,0.7-0.278,0.948-0.957,0.932    C119,40.532,117.67,40.552,116.26,40.552z"/>
	</g>
</g>
<g id="fszZVk_21_">
	<g>
		<path class="st1" d="M228.867,49.481c0,2.366,0.001,4.606,0,6.847c-0.002,1.124-0.036,1.156-1.192,1.158    c-0.587,0-1.175-0.016-1.763,0.004c-0.58,0.02-0.822-0.244-0.817-0.814c0.013-1.309,0.003-2.617,0.003-3.926    c-0.001-4.857-0.001-9.717,0.001-14.576c0-1.032,0.065-1.096,1.084-1.097c2.588-0.003,5.18-0.03,7.769,0.008    c3.366,0.049,5.851,2.23,6.342,5.499c0.368,2.445-1.003,4.939-3.438,6.248c-0.255,0.139-0.515,0.268-0.813,0.42    c1.252,2.326,2.488,4.621,3.725,6.917c0.562,1.048,0.41,1.314-0.77,1.317c-0.64,0-1.287-0.041-1.922,0.012    c-0.678,0.057-1.056-0.185-1.358-0.812c-1.073-2.231-2.222-4.427-3.308-6.65c-0.206-0.415-0.436-0.587-0.903-0.565    C230.658,49.508,229.808,49.481,228.867,49.481z M228.928,46.298c1.798,0,3.529,0.094,5.248-0.031    c1.313-0.096,2.307-1.392,2.359-2.729c0.052-1.297-0.842-2.709-2.109-2.825c-1.811-0.166-3.646-0.043-5.498-0.043    C228.928,42.535,228.928,44.396,228.928,46.298z"/>
		<path class="st1" d="M155.384,48.884c-3.224,0-6.317,0-9.534,0c0,0.299,0,0.582,0,0.863c0,2.244-0.021,4.487,0.012,6.73    c0.012,0.767-0.26,1.075-1.029,1.018c-0.609-0.047-1.229-0.036-1.844-0.003c-0.689,0.038-0.957-0.249-0.948-0.938    c0.021-2.377,0.007-4.755,0.007-7.132c0-3.767-0.002-7.533,0.002-11.299c0-0.965,0.083-1.041,1.058-1.048    c0.561-0.005,1.122-0.005,1.683,0c0.984,0.006,1.057,0.072,1.059,1.039c0.005,2.083,0.002,4.167,0.002,6.25    c0,0.288,0,0.577,0,0.916c3.191,0,6.306,0,9.534,0c0-0.287,0-0.571,0-0.854c0-2.138,0.019-4.274-0.011-6.411    c-0.01-0.686,0.227-0.985,0.926-0.95c0.693,0.035,1.389,0.018,2.082,0.006c0.542-0.009,0.79,0.244,0.769,0.779    c-0.007,0.134,0,0.267,0,0.4c0,6.01,0,12.02,0,18.031c0,1.164-0.04,1.2-1.228,1.202c-0.535,0-1.07-0.025-1.604,0.006    c-0.689,0.043-0.952-0.242-0.943-0.937c0.025-2.243,0.009-4.487,0.009-6.731C155.384,49.537,155.384,49.248,155.384,48.884z"/>
		<path class="st1" d="M176.336,53.972c0.646,0,1.258,0,1.866,0c2.111,0,4.222,0.016,6.331-0.008    c0.68-0.008,0.993,0.236,0.961,0.933c-0.027,0.586-0.014,1.176-0.004,1.764c0.01,0.557-0.221,0.83-0.809,0.829    c-3.795-0.011-7.588-0.011-11.381-0.001c-0.598,0.002-0.796-0.285-0.796-0.838c0.007-6.252,0.007-12.502,0-18.754    c0-0.565,0.218-0.828,0.803-0.826c3.794,0.009,7.587,0.009,11.382,0c0.541-0.002,0.787,0.238,0.793,0.76    c0,0.027,0.003,0.053,0.003,0.081c-0.02,3.194,0.341,2.594-2.441,2.634c-2.213,0.031-4.429,0.006-6.704,0.006    c0,1.578,0,3.11,0,4.737c0.261,0.014,0.541,0.04,0.82,0.041c1.926,0.004,3.85-0.001,5.773,0.004    c1.016,0.001,1.129,0.123,1.133,1.163c0,0.508-0.01,1.015,0,1.522c0.014,0.605-0.256,0.857-0.873,0.85    c-1.977-0.02-3.954-0.008-5.932-0.008c-0.289,0-0.58,0-0.926,0C176.336,50.556,176.336,52.197,176.336,53.972z"/>
		<path class="st1" d="M204.694,53.765c-1.254,0-2.51,0.024-3.764-0.012c-0.484-0.015-0.719,0.162-0.893,0.592    c-0.318,0.789-0.702,1.553-1.031,2.34c-0.233,0.559-0.607,0.834-1.23,0.807c-0.638-0.027-1.281,0.002-1.922-0.008    c-0.879-0.014-1.053-0.279-0.686-1.082c0.943-2.059,1.898-4.111,2.848-6.166c1.942-4.205,3.883-8.413,5.828-12.619    c0.186-0.399,0.324-0.976,0.907-0.798c0.332,0.102,0.681,0.458,0.831,0.785c2.869,6.214,5.711,12.439,8.555,18.663    c0.467,1.023,0.342,1.213-0.775,1.219c-0.561,0.002-1.123-0.033-1.68,0.008c-0.697,0.053-1.084-0.25-1.337-0.882    c-0.314-0.791-0.726-1.543-1.044-2.333c-0.169-0.419-0.413-0.533-0.844-0.523C207.204,53.783,205.948,53.765,204.694,53.765z     M201.786,50.447c1.988,0,3.855,0,5.804,0c-0.979-2.152-1.917-4.211-2.933-6.439C203.659,46.248,202.743,48.302,201.786,50.447z"/>
		<path class="st1" d="M259.072,40.553c0,0.436,0,0.753,0,1.069c0,4.889,0,9.776,0,14.665c0,1.124-0.073,1.196-1.16,1.198    c-0.561,0-1.124-0.029-1.682,0.007c-0.737,0.048-0.984-0.269-0.98-0.991c0.024-3.204,0.011-6.41,0.011-9.615    c0-2.078,0-4.156,0-6.333c-1.365,0-2.666,0.005-3.967-0.001c-0.977-0.004-1.084-0.098-1.077-1.04    c0.023-2.824-0.353-2.417,2.405-2.432c3.473-0.019,6.946-0.007,10.417-0.002c0.963,0,1.062,0.093,1.056,1.054    c-0.023,2.812,0.354,2.386-2.418,2.42C260.851,40.561,260.027,40.553,259.072,40.553z"/>
	</g>
</g>
<path class="st2" d="M131.457,26.418l-13.168-13.172c-3.022-3.025-3.022-7.947,0-10.972C119.755,0.808,121.705,0,123.778,0  c2.073,0,4.021,0.807,5.487,2.272l2.21,2.21l2.211-2.209C135.151,0.808,137.1,0,139.172,0c2.072,0,4.021,0.808,5.487,2.273  c3.024,3.024,3.025,7.947,0.001,10.974L131.457,26.418z M131.456,21.045l10.52-10.484c1.541-1.545,1.541-4.057-0.002-5.601  c-1.496-1.496-4.105-1.496-5.601,0l-4.898,4.896l-4.896-4.897c-1.495-1.495-4.105-1.496-5.602,0.001  c-1.543,1.543-1.543,4.055,0,5.599L131.456,21.045z"/>
</svg>