<?xml version="1.0" encoding="utf-8"?>
<!-- Generator: Adobe Illustrator 25.0.1, SVG Export Plug-In . SVG Version: 6.00 Build 0)  -->
<svg version="1.1" id="Layer_1" xmlns="http://www.w3.org/2000/svg" xmlns:xlink="http://www.w3.org/1999/xlink" x="0px" y="0px"
	 viewBox="0 0 153 49" style="enable-background:new 0 0 153 49;" xml:space="preserve">
<style type="text/css">
	.st0{fill:#E5E5E6;}
	.st1{fill:#B72025;}
</style>
<rect class="st0" width="153" height="49"/>
<g>
	<g>
		<path class="st1" d="M100.73,33.09c-0.19,0.11-0.38,0.23-0.57,0.34c-2.38,1.41-4.91,1.56-7.44,0.62
			c-2.04-0.76-2.93-2.91-2.64-5.38c0.34-2.97,2.54-4.3,5.37-4.75c1.21-0.2,2.44-0.35,3.63-0.62c0.66-0.15,1.43-0.29,1.57-1.16
			c0.16-1.03-0.19-1.6-1.4-1.85c-0.75-0.16-1.58-0.11-2.36-0.02c-0.91,0.11-1.39,0.8-1.62,1.62c-0.15,0.55-0.4,0.75-0.98,0.73
			c-0.95-0.04-1.9-0.01-2.86-0.02c-0.81-0.01-0.87-0.13-0.79-0.97c0.34-3.27,2.38-4.68,5.1-5.14c1.92-0.33,3.89-0.35,5.8,0.22
			c2.82,0.85,3.91,2.72,4.04,5.38c0.19,3.67,0.11,7.34,0.13,11.02c0.01,0.94-0.12,1.03-1.05,1.04c-0.63,0-1.26,0-1.89,0
			C101.44,34.18,101.44,34.18,100.73,33.09z M100.69,26.18c-1.29,0.31-2.53,0.59-3.75,0.94c-0.48,0.13-0.96,0.36-1.37,0.64
			c-0.72,0.5-0.8,1.27-0.65,2.06c0.16,0.77,0.71,1.1,1.45,1.17C99.11,31.26,101.25,29.33,100.69,26.18z"/>
		<path class="st1" d="M60.18,32.94c-2.25,1.62-4.56,1.94-7.09,1.44c-2.7-0.53-3.95-2.67-3.76-5.26c0.11-1.54,0.52-3.02,1.89-3.85
			c1.03-0.62,2.23-1,3.4-1.32c1.21-0.32,2.47-0.39,3.7-0.65c0.66-0.14,1.42-0.28,1.59-1.13c0.2-1.02-0.34-1.77-1.41-1.9
			c-0.75-0.08-1.54-0.1-2.29,0c-0.89,0.11-1.43,0.75-1.64,1.6c-0.15,0.58-0.43,0.79-1.03,0.76c-0.98-0.04-1.95-0.03-2.93-0.01
			c-0.59,0.02-0.76-0.21-0.71-0.8c0.31-3.28,2.19-4.81,5.15-5.31c1.9-0.32,3.83-0.33,5.74,0.21c2.54,0.71,3.77,2.49,4.08,5
			c0.12,1.03,0.12,2.08,0.13,3.13c0.02,2.79,0.01,5.58,0,8.37c0,0.87-0.09,0.95-0.96,0.96c-0.72,0.01-1.44-0.03-2.16,0.01
			C61.01,34.24,60.22,34.21,60.18,32.94z M59.98,26.18c-1.28,0.32-2.51,0.6-3.72,0.94c-0.5,0.14-1.02,0.35-1.43,0.66
			c-0.63,0.47-0.84,1.22-0.62,1.94c0.14,0.44,0.56,1,0.98,1.13c1.34,0.43,2.6,0.13,3.68-0.8C60.07,28.99,60.21,27.65,59.98,26.18z"
			/>
		<path class="st1" d="M45.87,23.18c-0.14,0-0.28-0.02-0.42,0c-1.12,0.12-1.89-0.02-2.43-1.35c-0.8-1.96-3.88-1.95-5.1-0.13
			c-1.18,1.76-0.98,6.01,0.34,7.65c0.84,1.05,1.9,1.28,3.12,0.95c1.01-0.27,1.73-0.89,1.96-1.96c0.12-0.58,0.42-0.81,1.02-0.8
			c1.03,0.03,2.04,0,3.07,0.01c0.83,0.01,0.97,0.16,0.8,0.96c-0.66,2.95-2.52,4.81-5.36,5.69c-2.1,0.66-4.18,0.51-6.18-0.43
			c-2.25-1.06-3.4-2.96-3.96-5.27c-0.52-2.1-0.5-4.22-0.05-6.35c0.7-3.34,3.42-5.69,6.83-5.82c1.99-0.07,3.91,0.06,5.64,1.14
			c1.81,1.12,2.85,2.75,3.15,4.86c0.08,0.59-0.11,0.88-0.75,0.83C46.99,23.15,46.43,23.18,45.87,23.18z"/>
		<path class="st1" d="M73.99,27.5c0.39-1.22,0.75-2.34,1.12-3.45c0.72-2.22,1.46-4.46,2.17-6.69c0.14-0.43,0.38-0.58,0.81-0.57
			c1.23,0.02,2.46,0.02,3.7,0c0.55-0.01,0.71,0.2,0.52,0.72c-1.42,3.91-2.83,7.81-4.24,11.72c-0.49,1.38-0.99,2.75-1.46,4.14
			c-0.19,0.56-0.46,0.85-1.09,0.83c-1.17-0.04-2.32-0.02-3.49-0.01c-0.49,0.01-0.75-0.2-0.92-0.66c-1.69-4.77-3.4-9.53-5.1-14.29
			c-0.21-0.59-0.42-1.18-0.63-1.77c-0.16-0.43-0.06-0.67,0.45-0.67c1.39,0.01,2.79,0.01,4.18,0c0.48,0,0.63,0.28,0.75,0.66
			c1.02,3.26,2.04,6.51,3.08,9.76C73.86,27.27,73.9,27.32,73.99,27.5z"/>
		<path class="st1" d="M107.51,25.49c0-2.6,0-5.2,0-7.8c0-0.85,0.06-0.9,0.91-0.91c0.98,0,1.95,0.01,2.93,0
			c0.43-0.01,0.7,0.1,0.75,0.6c0.04,0.46,0.28,0.63,0.69,0.26c1.23-1.08,2.69-1.39,4.28-1.3c0.47,0.02,0.69,0.19,0.69,0.66
			c0,1.21-0.01,2.41,0,3.63c0,0.49-0.22,0.66-0.7,0.6c-0.37-0.04-0.74-0.03-1.12-0.02c-2.3,0.06-3.57,1.31-3.59,3.62
			c-0.03,2.76-0.01,5.53-0.02,8.29c0,1.01-0.05,1.06-1.07,1.06c-0.89,0-1.76,0-2.65,0c-1.07,0-1.11-0.04-1.12-1.08
			C107.51,30.57,107.51,28.03,107.51,25.49z"/>
		<path class="st1" d="M88.49,25.49c0,2.6-0.02,5.21,0.02,7.81c0.01,0.68-0.24,0.9-0.89,0.89c-1.04-0.03-2.09-0.02-3.13-0.01
			c-0.53,0.01-0.73-0.21-0.72-0.75c0.02-5.3,0.02-10.6,0-15.89c0-0.59,0.21-0.78,0.77-0.76c1.07,0.02,2.14,0.02,3.21,0
			c0.57-0.02,0.78,0.2,0.77,0.77C88.48,20.2,88.49,22.84,88.49,25.49z"/>
		<path class="st1" d="M86.14,15.07c-0.58,0-1.16-0.01-1.74,0c-0.41,0.01-0.65-0.13-0.65-0.6c0.02-1.12,0.02-2.22,0-3.34
			c-0.01-0.4,0.16-0.61,0.57-0.61c1.18,0,2.36,0,3.55,0c0.43,0,0.62,0.2,0.62,0.64c-0.01,1.09-0.02,2.18,0,3.27
			c0.01,0.5-0.24,0.65-0.69,0.64C87.25,15.07,86.7,15.07,86.14,15.07z"/>
	</g>
</g>
</svg>
