<?xml version="1.0" encoding="utf-8"?>
<!-- Generator: Adobe Illustrator 25.0.1, SVG Export Plug-In . SVG Version: 6.00 Build 0)  -->
<svg version="1.1" id="Layer_1" xmlns="http://www.w3.org/2000/svg" xmlns:xlink="http://www.w3.org/1999/xlink" x="0px" y="0px"
	 viewBox="0 0 153 49" style="enable-background:new 0 0 153 49;" xml:space="preserve">
<style type="text/css">
	.st0{fill:#E5E5E6;}
	.st1{fill:#B72025;}
</style>
<rect class="st0" width="153" height="49"/>
<path class="st1" d="M55.37,32.33c-1.03-0.03-1.99-0.19-2.97-0.58c-1.3-0.52-2.35-1.31-3.16-2.37c-0.73-0.95-1.13-2.08-1.32-3.31
	c-0.16-1.07-0.05-2.1,0.31-3.07c0.31-0.85,0.69-1.68,1.38-2.37c0.54-0.54,1.07-1.07,1.71-1.44c0.68-0.41,1.36-0.82,2.21-0.86
	c0.64-0.02,1.29-0.32,1.93-0.27c1.52,0.1,2.95,0.48,4.23,1.4c0.85,0.6,1.52,1.33,2.04,2.18c0.36,0.58,0.57,1.28,0.74,1.96
	c0.14,0.54,0.19,1.13,0.2,1.69c0.04,2.09-0.79,3.81-2.34,5.2c-0.88,0.79-1.92,1.3-3.01,1.67C56.72,32.34,56.02,32.27,55.37,32.33z
	 M59.9,25.28c0.08-2.45-2.08-4.6-4.49-4.63c-2.72-0.04-4.68,1.99-4.71,4.53c-0.02,2.66,2.02,4.74,4.75,4.68
	C57.8,29.81,59.89,27.83,59.9,25.28z"/>
<path class="st1" d="M14.7,25.23c0-2.05,0-4.12,0-6.17c0-0.52,0.12-0.67,0.63-0.67c1.74,0,3.47-0.03,5.2,0.04
	c1.08,0.05,2.07,0.47,3.04,0.99c1.05,0.57,1.82,1.42,2.41,2.39c0.42,0.67,0.56,1.52,0.78,2.3c0.28,0.98,0.08,1.98-0.11,2.94
	c-0.11,0.58-0.41,1.15-0.71,1.68c-0.51,0.88-1.22,1.6-2.07,2.16c-0.55,0.36-1.14,0.63-1.78,0.85c-2.22,0.72-4.49,0.37-6.73,0.45
	c-0.45,0.02-0.66-0.24-0.66-0.73C14.7,29.37,14.7,27.3,14.7,25.23z M17.6,25.18L17.6,25.18c0,1.29,0,2.58,0,3.87
	c0,0.2-0.02,0.44,0.26,0.43c1.27-0.04,2.56,0.26,3.78-0.39c0.97-0.52,1.75-1.24,2.12-2.27c0.47-1.37,0.48-2.73-0.39-4
	c-0.81-1.16-1.86-1.89-3.32-1.91c-0.62-0.01-1.23-0.01-1.85,0c-0.59,0-0.59,0.01-0.59,0.58C17.6,22.72,17.6,23.95,17.6,25.18z"/>
<path class="st1" d="M44.78,25.2c0.11,1.24-0.33,2.3-0.86,3.38c-0.67,1.37-1.79,2.25-3.04,2.96c-0.71,0.4-1.51,0.72-2.37,0.73
	c-0.79,0-1.57,0.03-2.35-0.03c-1-0.08-1.88-0.53-2.74-1.01c-1.25-0.71-2.2-1.74-2.76-3.03c-0.76-1.72-1-3.5-0.22-5.33
	c0.39-0.91,0.83-1.76,1.5-2.49c0.55-0.59,1.22-1,1.9-1.44c0.91-0.58,1.94-0.63,2.92-0.87c0.59-0.14,1.27,0.02,1.9,0.11
	c0.92,0.14,1.81,0.42,2.61,0.92c1.47,0.91,2.55,2.12,3.14,3.75C44.69,23.61,44.87,24.39,44.78,25.2z M37.58,20.68
	c-2.83-0.24-4.79,2.26-4.83,4.41c-0.05,2.61,2.08,4.74,4.68,4.76c2.52,0.02,4.48-1.99,4.6-4.5C42.14,22.89,40.02,20.51,37.58,20.68z
	"/>
<path class="st1" d="M66.83,25.18c0-2.08,0.01-4.17-0.01-6.26c0-0.39,0.14-0.56,0.53-0.56c1.97,0.01,3.95-0.04,5.92,0.02
	c1.39,0.05,2.52,0.74,3.38,1.81c0.56,0.7,0.85,1.57,0.83,2.46c-0.02,0.75-0.14,1.54-0.42,2.22c-0.32,0.76-0.93,1.37-1.66,1.82
	c-0.27,0.17-0.32,0.34-0.16,0.62c0.79,1.36,1.57,2.73,2.36,4.09c0.28,0.5,0.12,0.76-0.46,0.76c-0.49,0-0.98-0.03-1.47,0.01
	c-0.66,0.05-0.83-0.33-1.07-0.75c-0.28-0.5-0.57-1-0.84-1.5c-0.26-0.48-0.51-0.97-0.77-1.45c-0.2-0.36-0.39-0.73-0.62-1.07
	c-0.05-0.08-0.21-0.13-0.32-0.14c-0.67-0.02-1.34-0.02-2.02-0.02c-0.33,0-0.42,0.19-0.42,0.49c0.01,1.23,0.01,2.46,0,3.69
	c0,0.55-0.05,0.6-0.6,0.6c-0.54,0.01-1.1-0.01-1.64,0c-0.37,0.01-0.51-0.13-0.51-0.52c0.02-2.12,0.01-4.23,0.01-6.35
	C66.85,25.18,66.84,25.18,66.83,25.18z M71.58,24.59L71.58,24.59c0.51-0.01,1,0,1.51-0.01c0.82-0.02,1.43-0.57,1.52-1.4
	c0.03-0.26,0.03-0.53,0-0.79c-0.08-0.83-0.73-1.44-1.57-1.47c-0.99-0.02-1.99-0.01-2.98-0.02c-0.32,0-0.45,0.14-0.45,0.45
	c0.01,0.94,0.01,1.87-0.01,2.81c-0.01,0.32,0.13,0.43,0.42,0.42C70.55,24.59,71.06,24.59,71.58,24.59z"/>
<path class="st1" d="M82.48,25.27c0-2.05-0.01-4.09,0-6.13c0-0.65,0.09-0.73,0.73-0.73c1.38,0,2.77-0.02,4.15,0.01
	c1.19,0.02,2.35,0.23,3.42,0.78c1.02,0.51,1.82,1.27,2.5,2.2c0.69,0.94,1.01,1.95,1.18,3.09c0.23,1.52-0.1,2.89-0.79,4.2
	c-0.51,0.95-1.25,1.75-2.15,2.31c-0.75,0.47-1.62,0.79-2.47,1.01c-0.76,0.19-1.57,0.17-2.36,0.19c-1.18,0.03-2.35,0.01-3.53,0.01
	c-0.63,0-0.7-0.08-0.7-0.71C82.48,29.4,82.48,27.33,82.48,25.27C82.48,25.27,82.48,25.27,82.48,25.27z M85.26,25.27
	c0,1.28,0.01,2.55,0,3.82c0,0.29,0.08,0.52,0.39,0.54c1.11,0.08,2.24,0.08,3.28-0.26c1.34-0.45,2.3-1.48,2.64-2.86
	c0.39-1.6,0.17-3.16-1.14-4.37c-0.5-0.46-1.03-0.9-1.7-0.99c-0.94-0.14-1.91-0.17-2.87-0.21c-0.49-0.02-0.59,0.11-0.6,0.59
	C85.26,22.78,85.26,24.03,85.26,25.27z"/>
<path class="st1" d="M127.28,25.19c0-2.07,0-4.15,0-6.22c0-0.6,0.01-0.6,0.61-0.6c0.46,0,0.92,0,1.38,0c0.68,0,0.76,0.08,0.76,0.74
	c0,1.38,0,2.77,0,4.15c0,0.61,0,0.62,0.6,0.62c1.64,0,3.28-0.01,4.92,0.01c0.4,0.01,0.54-0.11,0.53-0.52
	c-0.02-1.43-0.01-2.86-0.01-4.28c0-0.6,0.11-0.7,0.71-0.72c0.51-0.01,1-0.01,1.51,0c0.49,0.01,0.55,0.08,0.55,0.57
	c0,3.72-0.01,7.45-0.01,11.17c0,0.46-0.01,0.92,0.01,1.38c0.02,0.36-0.17,0.51-0.5,0.52c-0.53,0.01-1.07-0.03-1.59,0.01
	c-0.55,0.04-0.68-0.25-0.68-0.71c-0.01-1.41,0-2.83-0.01-4.25c0-0.14,0.03-0.3-0.03-0.42c-0.05-0.11-0.2-0.25-0.31-0.25
	c-1.3,0-2.6,0.04-3.9,0.04c-0.47,0-0.94-0.06-1.41-0.08c-0.34-0.02-0.37,0.23-0.37,0.49c-0.01,0.94-0.01,1.87-0.01,2.82
	c0,0.56,0.01,1.12,0,1.68c-0.01,0.54-0.14,0.66-0.67,0.67c-0.53,0-1.07-0.02-1.59,0.01c-0.39,0.02-0.48-0.14-0.48-0.49
	C127.29,29.42,127.28,27.3,127.28,25.19C127.28,25.19,127.28,25.19,127.28,25.19z"/>
<path class="st1" d="M103.73,18.37c0.38,0,0.76,0.01,1.13,0c0.26-0.01,0.39,0.12,0.48,0.37c0.3,0.81,0.63,1.59,0.94,2.4
	c0.28,0.72,0.54,1.44,0.82,2.16c0.25,0.64,0.52,1.28,0.78,1.92c0.26,0.65,0.51,1.31,0.77,1.96c0.29,0.75,0.58,1.5,0.87,2.24
	c0.29,0.77,0.61,1.53,0.88,2.32c0.11,0.29-0.15,0.42-0.37,0.43c-0.71,0.02-1.43,0.04-2.14-0.01c-0.15-0.01-0.34-0.26-0.42-0.43
	c-0.32-0.76-0.68-1.53-0.87-2.32c-0.15-0.63-0.53-0.57-0.97-0.57c-1.43,0.01-2.86,0.02-4.28-0.01c-0.37-0.01-0.51,0.18-0.62,0.48
	c-0.29,0.82-0.56,1.65-0.89,2.45c-0.08,0.19-0.39,0.38-0.61,0.4c-0.6,0.05-1.2,0.03-1.81,0.02c-0.42-0.01-0.59-0.25-0.45-0.63
	c0.34-0.89,0.71-1.78,1.05-2.67c0.32-0.84,0.62-1.68,0.94-2.52c0.2-0.54,0.45-1.07,0.66-1.6c0.26-0.68,0.51-1.37,0.77-2.05
	c0.1-0.26,0.23-0.52,0.34-0.79c0.45-1.1,0.9-2.2,1.37-3.29c0.05-0.11,0.25-0.22,0.39-0.23C102.92,18.35,103.32,18.38,103.73,18.37
	L103.73,18.37z M103.74,21.81c-0.11,0.14-0.2,0.2-0.23,0.28c-0.19,0.45-0.38,0.88-0.54,1.34c-0.3,0.83-0.6,1.66-0.88,2.5
	c-0.13,0.39-0.02,0.52,0.38,0.53c0.81,0.01,1.62,0,2.43,0.01c0.33,0.01,0.48-0.14,0.4-0.46c-0.03-0.15-0.08-0.29-0.13-0.44
	c-0.29-0.81-0.58-1.61-0.88-2.41C104.12,22.72,103.94,22.3,103.74,21.81z"/>
<path class="st1" d="M117.65,32.31c-0.97,0.12-2.16-0.21-3.25-0.89c-0.46-0.29-0.87-0.66-1.27-1.03c-0.08-0.07-0.07-0.35,0.01-0.44
	c0.39-0.45,0.82-0.86,1.25-1.27c0.06-0.05,0.26-0.02,0.35,0.04c0.43,0.26,0.82,0.62,1.28,0.82c1.15,0.51,2.33,0.67,3.46-0.05
	c0.66-0.42,1-1.21,0.69-1.91c-0.17-0.38-0.64-0.66-1.03-0.88c-0.77-0.45-1.65-0.6-2.51-0.85c-0.64-0.19-1.31-0.45-1.83-0.85
	c-0.76-0.59-1.28-1.38-1.37-2.4c-0.12-1.31,0.23-2.45,1.19-3.36c0.45-0.42,0.97-0.7,1.56-0.88c0.7-0.22,1.39-0.4,2.13-0.33
	c1.03,0.1,2.03,0.26,2.92,0.85c0.34,0.23,0.69,0.45,1.03,0.69c0.24,0.18,0.2,0.42,0.02,0.62c-0.36,0.37-0.74,0.71-1.1,1.07
	c-0.2,0.19-0.39,0.18-0.59,0.02c-0.72-0.54-1.52-0.79-2.41-0.75c-0.62,0.03-1.19,0.21-1.65,0.66c-0.47,0.45-0.4,1.38,0.14,1.77
	c0.68,0.49,1.44,0.77,2.24,1c1.19,0.35,2.42,0.68,3.32,1.59c0.32,0.32,0.53,0.79,0.75,1.2c0.29,0.55,0.26,1.17,0.2,1.76
	c-0.14,1.45-0.93,2.42-2.16,3.18C120.03,32.28,119.01,32.27,117.65,32.31z"/>
</svg>
