<?xml version="1.0" encoding="utf-8"?>
<!-- Generator: Adobe Illustrator 25.0.1, SVG Export Plug-In . SVG Version: 6.00 Build 0)  -->
<svg version="1.1" id="Layer_1" xmlns="http://www.w3.org/2000/svg" xmlns:xlink="http://www.w3.org/1999/xlink" x="0px" y="0px"
	 viewBox="0 0 153 49" style="enable-background:new 0 0 153 49;" xml:space="preserve">
<style type="text/css">
	.st0{fill:#E5E5E6;}
	.st1{fill:#B72025;}
</style>
<rect class="st0" width="153" height="49"/>
<path class="st1" d="M110.61,14.54h-3.55c-0.2,0-0.3,0.1-0.3,0.3v14.04c0,0.7-0.22,1.23-0.52,1.62c-0.3,0.4-0.7,0.5-1.2,0.5
	c-0.5,0-0.92-0.2-1.23-0.5c-0.3-0.4-0.5-0.92-0.5-1.62V14.83c0-0.2-0.2-0.3-0.3-0.3h-3.57c-0.2,0-0.3,0.1-0.3,0.3v14.14
	c0,1.82,0.4,3.55,1.52,4.67c1.1,1.12,2.62,1.73,4.37,1.73c1.82,0,3.35-0.6,4.37-1.73c1.1-1.1,1.52-2.72,1.52-4.67V14.83
	C111.04,14.74,110.83,14.54,110.61,14.54 M124.23,24.51c0.6-0.6,1.73-2.02,1.73-3.87c0-2.15-0.83-3.44-1.45-4.17
	c-1.12-1.2-2.62-1.82-4.37-1.82h-5.6c-0.22,0-0.33,0.2-0.33,0.3v19.83c0,0.2,0.2,0.3,0.33,0.3h5.92c1.82,0,3.55-0.7,4.67-2.15
	c0.6-0.8,1.33-2.15,1.33-4.17C126.25,26.33,124.75,24.9,124.23,24.51L124.23,24.51z M118.33,18.71h1.82c0.5,0,0.9,0.1,1.2,0.5
	c0.33,0.33,0.43,0.83,0.43,1.45c0,0.62-0.1,1.1-0.43,1.52c-0.3,0.3-0.7,0.5-1.1,0.5h-1.82v-3.97H118.33z M121.58,30.4
	c-0.3,0.4-0.7,0.5-1.33,0.5h-2.02v-4.3h2.02c0.5,0,0.9,0.22,1.2,0.52c0.33,0.4,0.52,0.9,0.52,1.52
	C122.07,29.47,121.9,29.97,121.58,30.4L121.58,30.4z M49.24,26.23c0.4-0.3,0.73-0.5,1.02-0.92c0.7-0.8,1.62-2.23,1.62-4.47
	c0-2.15-0.83-3.55-1.62-4.37c-1.02-1.2-2.54-1.82-4.27-1.92H40.1c-0.2,0-0.3,0.2-0.3,0.3v19.81c0,0.2,0.2,0.3,0.3,0.3h3.55
	c0.2,0,0.3-0.2,0.3-0.3v-7.32h1.23l2.23,7.52c0,0.1,0.22,0.2,0.33,0.2h3.75c0.1,0,0.2-0.1,0.3-0.1c0.1,0,0.1-0.2,0.1-0.3
	L49.24,26.23z M46.99,22.56c-0.3,0.4-0.8,0.62-1.42,0.62h-1.73v-4.47h1.73c0.6,0,1.1,0.2,1.42,0.6c0.4,0.43,0.52,0.92,0.52,1.62
	C47.52,21.66,47.42,22.16,46.99,22.56L46.99,22.56z M79.29,24.51c0.62-0.6,1.73-2.02,1.73-3.87c0-2.15-0.8-3.44-1.42-4.17
	c-1.12-1.2-2.65-1.82-4.37-1.82h-5.57c-0.2,0-0.3,0.2-0.3,0.3v19.83c0,0.2,0.2,0.3,0.3,0.3h5.89c1.82,0,3.55-0.7,4.7-2.15
	c0.6-0.8,1.33-2.15,1.33-4.17C81.44,26.33,79.92,24.9,79.29,24.51L79.29,24.51z M73.42,18.71h1.82c0.5,0,0.9,0.1,1.2,0.5
	c0.3,0.33,0.4,0.83,0.4,1.45c0,0.62-0.1,1.1-0.4,1.52c-0.3,0.3-0.7,0.5-1.1,0.5h-1.82v-3.97H73.42z M76.76,30.4
	c-0.3,0.4-0.7,0.5-1.33,0.5h-2.02v-4.3h2.02c0.5,0,0.9,0.22,1.2,0.52c0.3,0.4,0.52,0.9,0.52,1.52
	C77.19,29.47,77.09,29.97,76.76,30.4z M31.04,14.24c-1.82,0-3.35,0.6-4.37,1.73c-1.1,1.12-1.5,2.72-1.5,4.67v8.44
	c0,1.83,0.4,3.55,1.5,4.67c1.12,1.12,2.65,1.73,4.37,1.73c1.82,0,3.37-0.6,4.39-1.73c1.1-1.1,1.5-2.72,1.5-4.67v-4.65
	c0-0.22-0.2-0.43-0.4-0.43h-5.17c-0.22,0-0.43,0.2-0.43,0.43v3.44c0,0.2,0.2,0.4,0.43,0.4h1.33v0.83c0,0.7-0.2,1.33-0.5,1.73
	c-0.3,0.4-0.73,0.5-1.23,0.5s-0.9-0.2-1.23-0.5c-0.3-0.4-0.5-1.02-0.5-1.73v-8.34c0-0.73,0.2-1.35,0.5-1.73
	c0.33-0.4,0.73-0.5,1.23-0.5s0.92,0.2,1.23,0.5c0.3,0.4,0.5,1,0.5,1.73v0.8c0,0.2,0.2,0.33,0.3,0.33h3.55c0.2,0,0.3-0.12,0.3-0.33
	v-0.8c0-1.83-0.4-3.55-1.52-4.67C34.41,14.84,32.76,14.24,31.04,14.24z M65.8,14.54h-3.55c-0.2,0-0.3,0.1-0.3,0.3v14.04
	c0,0.7-0.22,1.23-0.52,1.62c-0.3,0.4-0.7,0.5-1.2,0.5s-0.92-0.2-1.23-0.5c-0.3-0.4-0.5-0.92-0.5-1.62V14.83c0-0.2-0.22-0.3-0.33-0.3
	h-3.55c-0.2,0-0.3,0.1-0.3,0.3v14.14c0,1.82,0.43,3.55,1.52,4.67c1.12,1.12,2.65,1.73,4.37,1.73c1.82,0,3.37-0.6,4.37-1.73
	c1.12-1.1,1.52-2.72,1.52-4.67V14.83C66.11,14.74,66,14.54,65.8,14.54z M95.67,14.54h-3.55c-0.2,0-0.3,0.2-0.3,0.3v7.71h-3.55v-7.71
	c0-0.2-0.2-0.3-0.3-0.3h-3.55c-0.2,0-0.3,0.2-0.3,0.3v19.81c0,0.2,0.2,0.3,0.3,0.3h3.55c0.2,0,0.3-0.2,0.3-0.3v-7.92h3.55v7.92
	c0,0.2,0.2,0.3,0.3,0.3h3.55c0.2,0,0.3-0.2,0.3-0.3V14.83C95.98,14.74,95.88,14.54,95.67,14.54z"/>
</svg>
