<?xml version="1.0" encoding="utf-8"?>
<!-- Generator: Adobe Illustrator 25.0.1, SVG Export Plug-In . SVG Version: 6.00 Build 0)  -->
<svg version="1.1" id="Layer_1" xmlns="http://www.w3.org/2000/svg" xmlns:xlink="http://www.w3.org/1999/xlink" x="0px" y="0px"
	 viewBox="0 0 153 49" style="enable-background:new 0 0 153 49;" xml:space="preserve">
<style type="text/css">
	.st0{fill:#E5E5E6;}
	.st1{fill:#B72025;}
</style>
<rect class="st0" width="153" height="49"/>
<g>
	<path class="st1" d="M17.74,34V15h7.9c3.4,0,5.61,2.48,5.61,5.77s-2.21,5.78-5.61,5.78h-4.88v7.43L17.74,34z M20.77,17.57v6.45
		h4.74c1.51,0,2.72-1.53,2.72-3.24s-1.24-3.21-2.72-3.21H20.77z M46.5,30.01c0.97-0.19,1.92-0.38,2.86-0.54
		c0.19,1.08,0.83,2.37,3.02,2.37c0.49,0,2.88-0.19,2.88-1.91c0-3.26-8.36,0.1-8.36-5.75c0-2.32,2.32-4.08,5.23-4.08
		s5.39,1.24,5.8,4.26c-0.97,0.17-1.92,0.35-2.86,0.55c-0.19-1.7-1.24-2.32-2.86-2.32c-1.43,0-2.4,0.76-2.4,1.59
		c0,1.11,1.03,1.4,2.65,1.57c3.09,0.32,5.69,1,5.69,4.18c0,2.86-2.48,4.37-5.77,4.37C48.87,34.3,46.88,32.44,46.5,30.01
		 M58.92,22.58v-2.23h2.35v-3.96h2.91v3.94h2.83v2.25h-2.83v7.74c0,1.08,0.32,1.41,1.24,1.41c0.4,0,1.3-0.06,1.3-0.06v2.35
		c0,0-1.05,0.1-2.08,0.1c-2.56,0-3.4-1.37-3.4-3.99v-7.56L58.92,22.58L58.92,22.58z M77.15,26.39c0-2.08-0.46-3.83-2.65-3.83
		c-2.08,0-2.65,1.75-2.65,3.83V34h-2.91V20.37h2.65l0.27,1.48c0.4-0.76,2.02-1.75,3.61-1.75c1.55-0.09,3.02,0.7,3.8,2.05
		c0.73-1.24,2.48-2.05,4.1-2.05c3.72,0,4.85,2.27,4.85,6.32v7.6h-2.88v-7.63c0-2.05-0.56-3.86-2.65-3.86
		c-2.18,0-2.65,1.75-2.65,3.86V34h-2.91L77.15,26.39z M93.53,25.06c-0.94-0.16-1.91-0.38-2.88-0.54c0.3-3.02,2.78-4.43,5.64-4.43
		c3.86,0,5.85,1.86,5.85,5.61v4.75c0,0.81,0.16,1.27,0.73,1.27c0.24-0.01,0.48-0.04,0.7-0.11v2.38c-0.56,0.15-1.14,0.22-1.73,0.22
		c-1.18,0.08-2.21-0.78-2.37-1.95c-1.06,1.26-2.61,2-4.26,2.02c-3.16,0-5.05-1.76-5.05-4.33c0-2.13,1.97-4.08,5.57-4.08h3.51v-0.82
		c0-1.05-0.44-2.48-2.94-2.48c-1.67,0-2.7,0.83-2.75,2.48 M99.25,28.72v-0.67h-3.22c-2.39,0-2.88,1.24-2.88,1.89
		c0,0.92,0.62,1.86,2.4,1.86c2.37,0,3.72-1.62,3.72-3.09 M38.35,34.3c-3.92,0-7.1-3.18-7.1-7.1s3.18-7.1,7.1-7.1s7.1,3.18,7.1,7.1
		C45.45,31.11,42.27,34.29,38.35,34.3 M38.35,22.8c-2.43,0-4.4,1.97-4.4,4.4s1.97,4.4,4.4,4.4s4.4-1.97,4.4-4.4v-0.01
		C42.74,24.76,40.78,22.8,38.35,22.8 M121.7,29.25c0.89,0.24,1.78,0.51,2.67,0.78c-0.62,1.97-2.48,4.24-6.2,4.24
		c-3.72,0-6.42-2.88-6.42-7.09s2.48-7.09,6.29-7.09c3.81,0,6.16,2.54,6.16,6.66c0.01,0.44-0.01,0.87-0.06,1.3h-9.37
		c0.06,2,1.43,3.77,3.4,3.77C119.78,31.86,121.23,30.81,121.7,29.25 M121.08,25.85c-0.08-2.02-1.05-3.32-3.06-3.32
		c-2,0-3.05,1.62-3.13,3.32H121.08z M125.45,30.01c0.97-0.19,1.92-0.38,2.86-0.54c0.19,1.08,0.83,2.37,3.02,2.37
		c0.48,0,2.88-0.19,2.88-1.91c0-3.26-8.36,0.11-8.36-5.75c0-2.32,2.32-4.08,5.23-4.08s5.39,1.24,5.8,4.27
		c-0.96,0.16-1.91,0.35-2.86,0.54c-0.19-1.7-1.24-2.32-2.86-2.32c-1.43,0-2.4,0.76-2.4,1.59c0,1.11,1.03,1.41,2.65,1.57
		c3.09,0.32,5.69,1,5.69,4.18c0,2.86-2.48,4.37-5.77,4.37C127.82,34.3,125.82,32.44,125.45,30.01 M103.14,22.58v-2.23h2.35v-3.96
		h2.91v3.94h2.83v2.25h-2.83v7.74c0,1.08,0.32,1.41,1.27,1.41c0.4,0,1.3-0.06,1.3-0.06v2.35c0,0-1.04,0.1-2.08,0.1
		c-2.56,0-3.4-1.37-3.4-3.99v-7.56L103.14,22.58L103.14,22.58z"/>
</g>
</svg>
