<?xml version="1.0" encoding="utf-8"?>
<!-- Generator: Adobe Illustrator 25.0.1, SVG Export Plug-In . SVG Version: 6.00 Build 0)  -->
<svg version="1.1" id="Layer_1" xmlns="http://www.w3.org/2000/svg" xmlns:xlink="http://www.w3.org/1999/xlink" x="0px" y="0px"
	 viewBox="0 0 153 49" style="enable-background:new 0 0 153 49;" xml:space="preserve">
<style type="text/css">
	.st0{fill:#E5E5E6;}
	.st1{fill:#B72025;}
</style>
<rect class="st0" width="153" height="49"/>
<g id="_x36_QsbCh.tif">
	<g>
		<path class="st1" d="M93.97,15.04c-0.01,0.08-0.01,0.15-0.01,0.23c0,0.95-0.01,1.88,0,2.83c0,0.17-0.05,0.2-0.2,0.2
			c-3.1-0.01-6.21,0-9.3,0c-0.25,0-0.25,0-0.25,0.25c0,1.38,0,2.75,0,4.13c0,0.3-0.05,0.3,0.29,0.3c2.98,0,5.95,0,8.93,0
			c0.26,0,0.26,0,0.26,0.26c0,0.88-0.01,1.76,0.01,2.64c0,0.17-0.05,0.21-0.21,0.21c-3-0.01-6.01,0-9.01,0c-0.26,0-0.26,0-0.26,0.26
			c0,1.4,0,2.8,0,4.2c0,0.33-0.04,0.3,0.29,0.3c3.08,0,6.14,0,9.22,0c0.25,0,0.25,0,0.25,0.26c0,0.93,0,1.86,0,2.79
			c0,0.14-0.04,0.19-0.19,0.19c-4.32,0-8.64-0.01-12.97,0c-0.2,0-0.19-0.1-0.19-0.23c0-6.18,0-12.36,0-18.53
			c0-0.08-0.01-0.17-0.01-0.26C85.06,15.04,89.52,15.04,93.97,15.04z"/>
		<path class="st1" d="M20,15.04c0,0.03-0.01,0.06-0.01,0.08c0,3.95-0.01,7.91,0.01,11.86c0.01,1.31,0.4,2.49,1.31,3.46
			c0.9,0.95,2.04,1.37,3.35,1.37c2.29-0.01,4.12-1.55,4.54-3.83c0.08-0.43,0.12-0.87,0.12-1.31c0.01-3.82,0.01-7.63,0.01-11.45
			c0-0.06-0.01-0.13-0.01-0.19c0.95,0,1.9,0,2.85,0c0,0.08-0.01,0.16-0.01,0.24c0,6.17,0,12.34,0,18.51c0,0.08,0,0.16,0,0.25
			c-0.93,0-1.85,0-2.79,0c0-0.59,0-1.16,0-1.77c-0.24,0.21-0.44,0.4-0.66,0.57c-1.36,1.07-2.9,1.57-4.62,1.52
			c-1.41-0.05-2.72-0.42-3.89-1.22c-1.44-0.98-2.34-2.35-2.79-4.02c-0.2-0.75-0.28-1.52-0.28-2.29c0-3.86,0-7.71,0-11.57
			c0-0.08,0-0.15,0-0.23C18.08,15.04,19.04,15.04,20,15.04z"/>
		<path class="st1" d="M37.41,15.04c0,0.08,0.01,0.15,0.01,0.23c0,2.15,0,4.31,0,6.46c0,0.07,0,0.13,0,0.24
			c1.73-1.66,3.77-2.28,6.08-1.97c1.85,0.25,3.38,1.11,4.57,2.54c2.34,2.82,2.21,6.92-0.29,9.55c-1.4,1.47-3.11,2.24-5.14,2.29
			c-2.02,0.05-3.76-0.64-5.25-2.07c0,0.6,0,1.17,0,1.74c-0.91,0-1.79,0-2.69,0c0-6.34,0-12.67,0-19.01
			C35.6,15.04,36.5,15.04,37.41,15.04z M42.21,31.94c2.73-0.05,4.85-2.3,4.7-5.01c-0.14-2.71-2.41-4.7-5.01-4.56
			c-2.74,0.14-4.76,2.39-4.59,5.09C37.5,30.26,39.89,32.03,42.21,31.94z"/>
		<path class="st1" d="M137.31,29.89c-0.03,0.23-0.05,0.45-0.1,0.68c-0.23,1.22-0.92,2.12-1.96,2.77c-0.82,0.51-1.72,0.79-2.66,0.93
			c-0.84,0.13-1.69,0.15-2.53,0.1c-1.35-0.08-2.66-0.35-3.83-1.08c-1.3-0.81-2.05-1.99-2.37-3.46c-0.01-0.08-0.02-0.16-0.05-0.25
			c0.07-0.01,0.11-0.01,0.17-0.01c1.07,0,2.13,0,3.2,0c0.1,0,0.16,0.01,0.2,0.12c0.32,1,1.02,1.55,2.03,1.75
			c0.98,0.19,1.97,0.23,2.96-0.01c0.33-0.08,0.65-0.21,0.9-0.44c0.33-0.29,0.49-0.64,0.39-1.08c-0.05-0.24-0.19-0.44-0.41-0.53
			c-0.36-0.16-0.73-0.31-1.1-0.4c-1.13-0.28-2.27-0.53-3.4-0.78c-0.88-0.2-1.74-0.42-2.54-0.83c-0.67-0.35-1.25-0.79-1.64-1.43
			c-0.38-0.62-0.5-1.3-0.46-2.02c0.05-0.86,0.31-1.62,0.85-2.28c0.58-0.7,1.34-1.14,2.18-1.44c0.74-0.26,1.52-0.43,2.31-0.45
			c0.68-0.02,1.37-0.05,2.04,0.01c1.32,0.1,2.58,0.42,3.67,1.23c0.95,0.71,1.5,1.67,1.73,2.83c0.05,0.23,0.07,0.46,0.1,0.71
			c-0.08,0.01-0.14,0.01-0.2,0.01c-1.04,0-2.09,0-3.12,0c-0.14,0-0.2-0.03-0.24-0.17c-0.23-0.83-0.77-1.38-1.59-1.62
			c-1.01-0.29-2.02-0.32-3.02-0.02c-0.23,0.07-0.46,0.19-0.65,0.34c-0.62,0.5-0.53,1.32,0.17,1.68c0.5,0.26,1.04,0.35,1.57,0.47
			c1.3,0.27,2.6,0.52,3.88,0.83c0.92,0.23,1.78,0.63,2.48,1.3c0.62,0.59,0.97,1.29,1.04,2.14c0,0.05,0.03,0.1,0.04,0.14
			C137.31,29.69,137.31,29.79,137.31,29.89z"/>
		<path class="st1" d="M107.4,21.27c0-0.27,0-0.53,0-0.8c0-0.41,0-0.41,0.41-0.41c0.96-0.01,1.92-0.01,2.88-0.02
			c0.17,0,0.2,0.05,0.2,0.2c0,4.53,0,9.06,0,13.6c0,0.16-0.05,0.2-0.2,0.2c-1.04-0.01-2.07-0.01-3.11,0c-0.15,0-0.2-0.05-0.2-0.2
			c0.01-0.29,0-0.57,0-0.86c0-0.06-0.01-0.12-0.01-0.22c-2.15,1.68-4.5,2.04-7.03,1.23c-1.58-0.5-2.83-1.49-3.75-2.86
			c-1.88-2.79-1.61-6.41,0.51-8.88c1.3-1.5,2.94-2.36,4.92-2.55c1.98-0.19,3.76,0.32,5.31,1.58
			C107.37,21.29,107.38,21.27,107.4,21.27z M103.12,31.34c2.42,0.04,4.43-1.95,4.34-4.46c-0.08-2.19-1.85-4.16-4.32-4.15
			c-2.5,0-4.37,2.03-4.31,4.4C98.86,29.62,100.92,31.37,103.12,31.34z"/>
		<path class="st1" d="M62.34,29.99c0.66,0.48,1.31,0.95,1.96,1.43c-0.03,0.05-0.05,0.09-0.08,0.13c-1.24,1.57-2.84,2.51-4.82,2.76
			c-1.82,0.23-3.55-0.08-5.11-1.08c-1.74-1.11-2.79-2.7-3.17-4.73c-0.3-1.61-0.13-3.18,0.63-4.65c1.16-2.24,3.01-3.56,5.51-3.87
			c2.32-0.29,4.32,0.43,5.91,2.16c0.95,1.03,1.51,2.26,1.7,3.64c0.1,0.71,0.09,1.43,0.13,2.13c0,0.03-0.01,0.05-0.01,0.11
			c-3.74,0-7.48,0-11.22,0c-0.01,1.33,1.33,3.03,2.87,3.65C58.38,32.37,60.87,32,62.34,29.99z M62.23,25.87
			c-0.38-1.91-2-3.62-4.36-3.54c-1.13,0.05-2.09,0.48-2.87,1.29c-0.61,0.63-0.99,1.38-1.19,2.25
			C56.63,25.87,59.43,25.87,62.23,25.87z"/>
		<path class="st1" d="M115.2,27.2c0-1.26,0-2.53,0-3.79c0-0.23,0-0.23-0.23-0.23c-0.76,0-1.52,0-2.28,0c-0.14,0-0.2-0.03-0.2-0.19
			c0.01-0.93,0.01-1.86,0-2.79c0-0.14,0.05-0.19,0.19-0.19c0.77,0.01,1.55,0,2.32,0.01c0.18,0,0.22-0.05,0.22-0.23
			c-0.01-1.19,0-2.38-0.01-3.56c0-0.16,0.04-0.2,0.2-0.2c1.04,0.01,2.09,0.01,3.12,0c0.17,0,0.2,0.05,0.2,0.2
			c-0.01,1.19,0,2.38-0.01,3.56c0,0.17,0.05,0.23,0.22,0.23c1.19-0.01,2.39,0,3.59-0.01c0.17,0,0.22,0.05,0.21,0.21
			c-0.01,0.92-0.01,1.83,0,2.75c0,0.17-0.04,0.22-0.21,0.21c-1.17-0.01-2.35-0.01-3.52,0c-0.31,0-0.29-0.05-0.29,0.28
			c0,2.05,0.01,4.1-0.01,6.15c-0.01,0.92,0.53,1.25,1.26,1.27c0.85,0.02,1.7,0.01,2.54,0c0.17,0,0.23,0.04,0.23,0.22
			c-0.01,0.92-0.01,1.83,0,2.75c0,0.14-0.05,0.19-0.19,0.18c-1.33-0.01-2.66,0.01-3.98-0.01c-0.88-0.02-1.69-0.3-2.35-0.9
			c-0.64-0.59-0.99-1.32-1.01-2.18C115.19,29.69,115.2,28.45,115.2,27.2C115.2,27.2,115.2,27.2,115.2,27.2z"/>
		<path class="st1" d="M69.62,34.04c-0.92,0-1.81,0-2.72,0c0-4.61,0-9.21,0-13.81c0.89,0,1.77,0,2.68,0c0,0.53,0,1.07,0,1.64
			c0.2-0.23,0.35-0.46,0.54-0.65c0.71-0.73,1.59-1.1,2.61-1.1c0.35,0,0.71,0,1.07,0c0,0.85,0,1.68,0,2.53
			c-0.35,0-0.69-0.01-1.04,0.01c-0.33,0.02-0.67,0.04-0.98,0.13c-1.11,0.33-1.74,1.14-2.02,2.22c-0.09,0.35-0.14,0.72-0.14,1.08
			c-0.01,2.58-0.01,5.16-0.01,7.75C69.62,33.9,69.62,33.97,69.62,34.04z"/>
	</g>
</g>
</svg>
